<svg xmlns="http://www.w3.org/2000/svg" xmlns:xlink="http://www.w3.org/1999/xlink" width="500" zoomAndPan="magnify" viewBox="0 0 375 374.999991" height="500" preserveAspectRatio="xMidYMid meet" version="1.0"><defs><clipPath id="fdfdcbab5c"><path d="M 80.546875 80.546875 L 294.296875 80.546875 L 294.296875 294.296875 L 80.546875 294.296875 Z M 80.546875 80.546875 " clip-rule="nonzero"/></clipPath></defs><rect x="-37.5" width="450" fill="#ffffff" y="-37.499999" height="449.999989" fill-opacity="1"/><rect x="-37.5" width="450" fill="#ffffff" y="-37.499999" height="449.999989" fill-opacity="1"/><path fill="#0097b2" d="M 187.5 375 C 291.050781 375 375 291.050781 375 187.5 C 375 83.945312 291.050781 0 187.5 0 C 83.945312 0 0 83.945312 0 187.5 C 0 291.050781 83.945312 375 187.5 375 Z M 187.5 375 " fill-opacity="1" fill-rule="nonzero"/><g clip-path="url(#fdfdcbab5c)"><path fill="#ffffff" d="M 218.058594 153.121094 L 156.941406 153.121094 C 154.832031 153.121094 153.121094 154.832031 153.121094 156.941406 L 153.121094 218.058594 C 153.121094 220.167969 154.832031 221.878906 156.941406 221.878906 L 218.058594 221.878906 C 220.167969 221.878906 221.878906 220.167969 221.878906 218.058594 L 221.878906 156.941406 C 221.878906 154.832031 220.167969 153.121094 218.058594 153.121094 Z M 214.238281 214.238281 L 160.761719 214.238281 L 160.761719 160.761719 L 214.238281 160.761719 Z M 272.234375 191.320312 C 273.816406 195.753906 278.019531 198.957031 282.992188 198.957031 C 289.308594 198.957031 294.449219 193.816406 294.449219 187.5 C 294.449219 181.183594 289.308594 176.039062 282.992188 176.039062 C 278.019531 176.039062 273.816406 179.246094 272.234375 183.679688 L 240.976562 183.679688 L 240.976562 176.039062 L 256.253906 176.039062 C 258.367188 176.039062 260.074219 174.332031 260.074219 172.222656 C 260.074219 170.109375 258.367188 168.402344 256.253906 168.402344 L 240.976562 168.402344 L 240.976562 160.761719 L 256.253906 160.761719 C 258.367188 160.761719 260.074219 159.054688 260.074219 156.941406 L 260.074219 145.484375 L 268.417969 145.484375 C 269.996094 149.917969 274.199219 153.121094 279.171875 153.121094 C 285.488281 153.121094 290.632812 147.980469 290.632812 141.664062 C 290.632812 135.347656 285.488281 130.203125 279.171875 130.203125 C 274.199219 130.203125 269.996094 133.410156 268.417969 137.84375 L 256.253906 137.84375 C 254.140625 137.84375 252.433594 139.550781 252.433594 141.664062 L 252.433594 153.121094 L 240.976562 153.121094 L 240.976562 137.84375 C 240.976562 135.730469 239.269531 134.023438 237.15625 134.023438 L 221.878906 134.023438 L 221.878906 122.566406 L 233.335938 122.566406 C 235.449219 122.566406 237.15625 120.859375 237.15625 118.746094 L 237.15625 106.582031 C 241.589844 105.003906 244.796875 100.800781 244.796875 95.828125 C 244.796875 89.507812 239.652344 84.367188 233.335938 84.367188 C 227.019531 84.367188 221.878906 89.507812 221.878906 95.828125 C 221.878906 100.800781 225.082031 105.003906 229.515625 106.582031 L 229.515625 114.925781 L 218.058594 114.925781 C 215.945312 114.925781 214.238281 116.632812 214.238281 118.746094 L 214.238281 134.023438 L 206.597656 134.023438 L 206.597656 118.746094 C 206.597656 116.632812 204.890625 114.925781 202.777344 114.925781 C 200.667969 114.925781 198.957031 116.632812 198.957031 118.746094 L 198.957031 134.023438 L 191.320312 134.023438 L 191.320312 102.765625 C 195.753906 101.183594 198.957031 96.980469 198.957031 92.007812 C 198.957031 85.691406 193.816406 80.546875 187.5 80.546875 C 181.183594 80.546875 176.039062 85.691406 176.039062 92.007812 C 176.039062 96.980469 179.246094 101.183594 183.679688 102.765625 L 183.679688 134.023438 L 176.039062 134.023438 L 176.039062 118.746094 C 176.039062 116.632812 174.328125 114.925781 172.222656 114.925781 C 170.113281 114.925781 168.402344 116.632812 168.402344 118.746094 L 168.402344 134.023438 L 160.761719 134.023438 L 160.761719 118.746094 C 160.761719 116.632812 159.050781 114.925781 156.941406 114.925781 L 145.484375 114.925781 L 145.484375 106.582031 C 149.917969 105.003906 153.121094 100.800781 153.121094 95.828125 C 153.121094 89.507812 147.980469 84.367188 141.664062 84.367188 C 135.347656 84.367188 130.203125 89.507812 130.203125 95.828125 C 130.203125 100.800781 133.410156 105.003906 137.84375 106.582031 L 137.84375 118.746094 C 137.84375 120.859375 139.554688 122.566406 141.664062 122.566406 L 153.121094 122.566406 L 153.121094 134.023438 L 137.84375 134.023438 C 135.734375 134.023438 134.023438 135.730469 134.023438 137.84375 L 134.023438 153.121094 L 122.566406 153.121094 L 122.566406 141.664062 C 122.566406 139.550781 120.855469 137.84375 118.746094 137.84375 L 106.582031 137.84375 C 105.003906 133.410156 100.800781 130.203125 95.828125 130.203125 C 89.507812 130.203125 84.367188 135.347656 84.367188 141.664062 C 84.367188 147.980469 89.507812 153.121094 95.828125 153.121094 C 100.800781 153.121094 105.003906 149.917969 106.582031 145.484375 L 114.925781 145.484375 L 114.925781 156.941406 C 114.925781 159.054688 116.636719 160.761719 118.746094 160.761719 L 134.023438 160.761719 L 134.023438 168.402344 L 118.746094 168.402344 C 116.636719 168.402344 114.925781 170.109375 114.925781 172.222656 C 114.925781 174.332031 116.636719 176.039062 118.746094 176.039062 L 134.023438 176.039062 L 134.023438 183.679688 L 102.765625 183.679688 C 101.183594 179.246094 96.980469 176.039062 92.007812 176.039062 C 85.691406 176.039062 80.546875 181.183594 80.546875 187.5 C 80.546875 193.816406 85.691406 198.957031 92.007812 198.957031 C 96.980469 198.957031 101.183594 195.753906 102.765625 191.320312 L 134.023438 191.320312 L 134.023438 198.957031 L 118.746094 198.957031 C 116.636719 198.957031 114.925781 200.667969 114.925781 202.777344 C 114.925781 204.890625 116.636719 206.597656 118.746094 206.597656 L 134.023438 206.597656 L 134.023438 214.238281 L 118.746094 214.238281 C 116.636719 214.238281 114.925781 215.945312 114.925781 218.058594 L 114.925781 229.515625 L 106.582031 229.515625 C 105.003906 225.082031 100.800781 221.878906 95.828125 221.878906 C 89.507812 221.878906 84.367188 227.019531 84.367188 233.335938 C 84.367188 239.652344 89.507812 244.796875 95.828125 244.796875 C 100.800781 244.796875 105.003906 241.589844 106.582031 237.15625 L 118.746094 237.15625 C 120.855469 237.15625 122.566406 235.449219 122.566406 233.335938 L 122.566406 221.878906 L 134.023438 221.878906 L 134.023438 237.15625 C 134.023438 239.269531 135.734375 240.976562 137.84375 240.976562 L 153.121094 240.976562 L 153.121094 252.433594 L 141.664062 252.433594 C 139.554688 252.433594 137.84375 254.140625 137.84375 256.253906 L 137.84375 268.417969 C 133.410156 269.996094 130.203125 274.199219 130.203125 279.171875 C 130.203125 285.488281 135.347656 290.632812 141.664062 290.632812 C 147.980469 290.632812 153.121094 285.488281 153.121094 279.171875 C 153.121094 274.199219 149.917969 269.996094 145.484375 268.417969 L 145.484375 260.074219 L 156.941406 260.074219 C 159.050781 260.074219 160.761719 258.367188 160.761719 256.253906 L 160.761719 240.976562 L 168.402344 240.976562 L 168.402344 256.253906 C 168.402344 258.367188 170.113281 260.074219 172.222656 260.074219 C 174.328125 260.074219 176.039062 258.367188 176.039062 256.253906 L 176.039062 240.976562 L 183.679688 240.976562 L 183.679688 272.234375 C 179.246094 273.816406 176.039062 278.019531 176.039062 282.992188 C 176.039062 289.308594 181.183594 294.449219 187.5 294.449219 C 193.816406 294.449219 198.957031 289.308594 198.957031 282.992188 C 198.957031 278.019531 195.753906 273.816406 191.320312 272.234375 L 191.320312 240.976562 L 198.957031 240.976562 L 198.957031 256.253906 C 198.957031 258.367188 200.667969 260.074219 202.777344 260.074219 C 204.890625 260.074219 206.597656 258.367188 206.597656 256.253906 L 206.597656 240.976562 L 214.238281 240.976562 L 214.238281 256.253906 C 214.238281 258.367188 215.945312 260.074219 218.058594 260.074219 L 229.515625 260.074219 L 229.515625 268.417969 C 225.082031 269.996094 221.878906 274.199219 221.878906 279.171875 C 221.878906 285.488281 227.019531 290.632812 233.335938 290.632812 C 239.652344 290.632812 244.796875 285.488281 244.796875 279.171875 C 244.796875 274.199219 241.589844 269.996094 237.15625 268.417969 L 237.15625 256.253906 C 237.15625 254.140625 235.449219 252.433594 233.335938 252.433594 L 221.878906 252.433594 L 221.878906 240.976562 L 237.15625 240.976562 C 239.269531 240.976562 240.976562 239.269531 240.976562 237.15625 L 240.976562 221.878906 L 252.433594 221.878906 L 252.433594 233.335938 C 252.433594 235.449219 254.140625 237.15625 256.253906 237.15625 L 268.417969 237.15625 C 269.996094 241.589844 274.199219 244.796875 279.171875 244.796875 C 285.488281 244.796875 290.632812 239.652344 290.632812 233.335938 C 290.632812 227.019531 285.488281 221.878906 279.171875 221.878906 C 274.199219 221.878906 269.996094 225.082031 268.417969 229.515625 L 260.074219 229.515625 L 260.074219 218.058594 C 260.074219 215.945312 258.367188 214.238281 256.253906 214.238281 L 240.976562 214.238281 L 240.976562 206.597656 L 256.253906 206.597656 C 258.367188 206.597656 260.074219 204.890625 260.074219 202.777344 C 260.074219 200.667969 258.367188 198.957031 256.253906 198.957031 L 240.976562 198.957031 L 240.976562 191.320312 Z M 282.992188 183.679688 C 285.101562 183.679688 286.8125 185.390625 286.8125 187.5 C 286.8125 189.609375 285.101562 191.320312 282.992188 191.320312 C 280.882812 191.320312 279.171875 189.609375 279.171875 187.5 C 279.171875 185.390625 280.882812 183.679688 282.992188 183.679688 Z M 279.171875 137.84375 C 281.28125 137.84375 282.992188 139.554688 282.992188 141.664062 C 282.992188 143.773438 281.28125 145.484375 279.171875 145.484375 C 277.0625 145.484375 275.351562 143.773438 275.351562 141.664062 C 275.351562 139.554688 277.0625 137.84375 279.171875 137.84375 Z M 233.335938 92.007812 C 235.445312 92.007812 237.15625 93.71875 237.15625 95.828125 C 237.15625 97.9375 235.445312 99.648438 233.335938 99.648438 C 231.226562 99.648438 229.515625 97.9375 229.515625 95.828125 C 229.515625 93.71875 231.226562 92.007812 233.335938 92.007812 Z M 187.5 88.1875 C 189.605469 88.1875 191.320312 89.898438 191.320312 92.007812 C 191.320312 94.117188 189.605469 95.828125 187.5 95.828125 C 185.394531 95.828125 183.679688 94.117188 183.679688 92.007812 C 183.679688 89.898438 185.394531 88.1875 187.5 88.1875 Z M 141.664062 92.007812 C 143.769531 92.007812 145.484375 93.71875 145.484375 95.828125 C 145.484375 97.9375 143.769531 99.648438 141.664062 99.648438 C 139.558594 99.648438 137.84375 97.9375 137.84375 95.828125 C 137.84375 93.71875 139.558594 92.007812 141.664062 92.007812 Z M 95.828125 145.484375 C 93.722656 145.484375 92.007812 143.773438 92.007812 141.664062 C 92.007812 139.554688 93.722656 137.84375 95.828125 137.84375 C 97.933594 137.84375 99.648438 139.554688 99.648438 141.664062 C 99.648438 143.773438 97.933594 145.484375 95.828125 145.484375 Z M 92.007812 191.320312 C 89.902344 191.320312 88.1875 189.609375 88.1875 187.5 C 88.1875 185.390625 89.902344 183.679688 92.007812 183.679688 C 94.113281 183.679688 95.828125 185.390625 95.828125 187.5 C 95.828125 189.609375 94.113281 191.320312 92.007812 191.320312 Z M 95.828125 237.15625 C 93.722656 237.15625 92.007812 235.445312 92.007812 233.335938 C 92.007812 231.226562 93.722656 229.515625 95.828125 229.515625 C 97.933594 229.515625 99.648438 231.226562 99.648438 233.335938 C 99.648438 235.445312 97.933594 237.15625 95.828125 237.15625 Z M 141.664062 282.992188 C 139.558594 282.992188 137.84375 281.28125 137.84375 279.171875 C 137.84375 277.0625 139.558594 275.351562 141.664062 275.351562 C 143.769531 275.351562 145.484375 277.0625 145.484375 279.171875 C 145.484375 281.28125 143.769531 282.992188 141.664062 282.992188 Z M 187.5 286.8125 C 185.394531 286.8125 183.679688 285.101562 183.679688 282.992188 C 183.679688 280.882812 185.394531 279.171875 187.5 279.171875 C 189.605469 279.171875 191.320312 280.882812 191.320312 282.992188 C 191.320312 285.101562 189.605469 286.8125 187.5 286.8125 Z M 233.335938 282.992188 C 231.226562 282.992188 229.515625 281.28125 229.515625 279.171875 C 229.515625 277.0625 231.226562 275.351562 233.335938 275.351562 C 235.445312 275.351562 237.15625 277.0625 237.15625 279.171875 C 237.15625 281.28125 235.445312 282.992188 233.335938 282.992188 Z M 279.171875 229.515625 C 281.28125 229.515625 282.992188 231.226562 282.992188 233.335938 C 282.992188 235.445312 281.28125 237.15625 279.171875 237.15625 C 277.0625 237.15625 275.351562 235.445312 275.351562 233.335938 C 275.351562 231.226562 277.0625 229.515625 279.171875 229.515625 Z M 233.335938 233.335938 L 141.664062 233.335938 L 141.664062 141.664062 L 233.335938 141.664062 Z M 233.335938 233.335938 " fill-opacity="1" fill-rule="nonzero"/></g></svg>