<svg xmlns="http://www.w3.org/2000/svg" xmlns:xlink="http://www.w3.org/1999/xlink" width="500" zoomAndPan="magnify" viewBox="0 0 375 374.999991" height="500" preserveAspectRatio="xMidYMid meet" version="1.0"><defs><clipPath id="e9dd31c24d"><path d="M 68 74.121094 L 307 74.121094 L 307 300.621094 L 68 300.621094 Z M 68 74.121094 " clip-rule="nonzero"/></clipPath></defs><rect x="-37.5" width="450" fill="#ffffff" y="-37.499999" height="449.999989" fill-opacity="1"/><rect x="-37.5" width="450" fill="#ffffff" y="-37.499999" height="449.999989" fill-opacity="1"/><path fill="#8addf7" d="M 187.5 375 C 291.050781 375 375 291.050781 375 187.5 C 375 83.945312 291.050781 0 187.5 0 C 83.945312 0 0 83.945312 0 187.5 C 0 291.050781 83.945312 375 187.5 375 Z M 187.5 375 " fill-opacity="1" fill-rule="nonzero"/><g clip-path="url(#e9dd31c24d)"><path fill="#ffffff" d="M 112.160156 171.433594 C 112.84375 170.574219 113.488281 169.679688 114.109375 168.796875 C 108.15625 164.710938 101.371094 162.226562 95.230469 158.472656 C 89.003906 154.660156 82.730469 150.941406 76.273438 147.511719 C 76.148438 147.464844 76.046875 147.402344 75.9375 147.339844 C 75.910156 147.308594 75.878906 147.292969 75.847656 147.285156 C 75.21875 148.007812 74.582031 148.730469 73.929688 149.425781 C 86.054688 157.820312 99.1875 164.496094 112.160156 171.433594 Z M 125.707031 152.523438 C 125.738281 133.101562 123.269531 113.160156 110.769531 98.953125 C 104.597656 108.765625 96.347656 116.925781 90.074219 126.644531 C 86.355469 132.371094 82.863281 138.289062 78.742188 143.714844 C 85.84375 147.542969 92.566406 152.027344 99.664062 155.839844 C 105.34375 158.890625 111.296875 161.304688 116.609375 165 C 119.355469 160.644531 121.972656 156.210938 125.707031 152.523438 Z M 202.605469 79.183594 C 196.859375 80.222656 191.238281 82.21875 185.355469 81.976562 C 180.457031 81.785156 175.714844 80.898438 170.933594 80.011719 C 178.175781 88.839844 194.179688 86.78125 202.605469 79.183594 Z M 210.753906 79.789062 C 210.070312 79.585938 209.371094 79.421875 208.683594 79.238281 C 198.535156 92.636719 173.546875 95.128906 165.179688 79.285156 C 164.070312 79.617188 162.984375 79.996094 161.910156 80.386719 C 165.464844 90.578125 175.984375 96.6875 186.820312 96.308594 C 198.132812 95.910156 206.035156 89.492188 210.753906 79.789062 Z M 261.40625 96.402344 C 261.273438 96.546875 251.367188 91.867188 250.375 91.488281 C 243.613281 88.839844 236.644531 86.671875 229.648438 84.773438 C 226.871094 84.035156 223.859375 83.746094 221.179688 82.792969 C 220.566406 82.566406 215.605469 80.425781 215.179688 81.164062 C 208.804688 92.636719 198.964844 102.003906 184.875 100.777344 C 182.273438 100.554688 179.640625 100.101562 177.148438 99.382812 C 168.246094 96.820312 160.460938 90.804688 157.78125 81.707031 C 156.484375 81.929688 155.242188 82.597656 153.914062 82.871094 C 153.683594 82.917969 153.457031 82.917969 153.25 82.894531 C 139.972656 86.394531 126.792969 90.136719 114.519531 96.402344 C 125.007812 108.765625 128.59375 126.054688 129.773438 141.835938 C 131.496094 165.164062 128.53125 188.777344 128.53125 212.15625 C 128.53125 224.523438 129.726562 236.851562 127.746094 249.109375 C 125.800781 261 126.988281 273.296875 124.511719 285.097656 C 123.585938 289.40625 135.742188 292.789062 138.296875 293.394531 C 143.613281 294.652344 149.046875 295.289062 154.542969 295.398438 C 176.351562 295.816406 198.265625 295.980469 220.046875 295.421875 C 225.914062 295.273438 231.929688 295.003906 237.597656 293.410156 C 240.308594 292.640625 252.167969 289.605469 251.414062 285.097656 C 249.34375 272.328125 249.566406 259.339844 247.773438 246.507812 C 246.167969 235.152344 247.425781 223.601562 247.394531 212.15625 C 247.285156 188.957031 244.109375 164.921875 246.167969 141.835938 C 247.574219 125.984375 250.855469 108.851562 261.40625 96.402344 Z M 295.632812 142.976562 C 291.386719 137.109375 287.863281 130.742188 283.507812 124.835938 C 277.28125 116.351562 270.132812 108.59375 264.496094 99.707031 C 251.867188 114.675781 249.949219 135.65625 250.28125 155.699219 C 251.539062 159.117188 254.335938 162.71875 257.222656 165.929688 C 257.238281 165.929688 257.253906 165.921875 257.269531 165.921875 C 271.09375 160.582031 284.554688 152.875 295.632812 142.976562 Z M 300.894531 149.410156 C 300.019531 148.488281 299.1875 147.542969 298.378906 146.570312 C 287.316406 156.351562 274.199219 163.953125 260.5 169.457031 C 261.195312 170.183594 261.863281 170.875 262.476562 171.511719 C 275.511719 164.542969 288.707031 157.851562 300.894531 149.410156 Z M 305.972656 148.15625 C 307.105469 149.25 306.671875 150.894531 305.507812 151.726562 C 292.230469 161.28125 277.566406 168.546875 263.175781 176.285156 C 262.316406 176.761719 261.148438 176.699219 260.429688 175.929688 C 257.6875 172.949219 253.761719 169.035156 250.539062 164.796875 C 250.734375 170.015625 251.011719 175.074219 251.207031 179.886719 C 251.867188 198.480469 251.578125 216.957031 251.460938 235.53125 C 251.382812 243.449219 253.621094 251.042969 254 258.90625 C 254.433594 268.226562 254.464844 277.511719 256.40625 286.6875 C 256.554688 287.441406 256.429688 288.347656 255.800781 288.894531 C 247.046875 296.5 236 299.277344 224.585938 299.792969 C 206.144531 300.621094 187.699219 299.582031 169.269531 299.984375 C 152.339844 300.367188 133.6875 300.777344 120.125 288.894531 C 119.496094 288.347656 119.371094 287.441406 119.519531 286.6875 C 121.667969 276.574219 120.886719 266.457031 122.136719 256.289062 C 123.152344 248.332031 124.636719 240.671875 124.347656 232.613281 C 123.757812 215.03125 124.058594 197.457031 124.71875 179.886719 C 124.976562 173.492188 125.386719 166.613281 125.597656 159.558594 C 121.578125 164.8125 118.703125 170.875 114.363281 175.929688 C 113.675781 176.714844 112.476562 176.746094 111.617188 176.285156 C 97.226562 168.546875 82.5625 161.28125 69.285156 151.726562 C 68.121094 150.894531 67.6875 149.25 68.820312 148.15625 C 77.226562 140.144531 81.894531 129.625 88.847656 120.527344 C 95.40625 111.949219 102.714844 103.953125 108.15625 94.570312 C 108.667969 93.675781 109.511719 93.386719 110.304688 93.511719 C 110.359375 93.464844 110.421875 93.417969 110.484375 93.371094 C 125.132812 85.554688 141.152344 81.371094 157.128906 77.203125 C 157.144531 77.21875 157.160156 77.226562 157.175781 77.242188 C 159.980469 76.308594 162.695312 75.183594 165.550781 74.464844 C 166.25 74.285156 166.839844 74.417969 167.304688 74.71875 C 167.335938 74.734375 167.382812 74.765625 167.429688 74.78125 C 174.183594 75.960938 181.234375 78.089844 188.148438 77.335938 C 194.289062 76.683594 200.128906 74.640625 206.289062 74.128906 C 206.8125 74.082031 207.230469 74.207031 207.5625 74.402344 C 207.804688 74.386719 208.078125 74.402344 208.332031 74.464844 C 227.621094 79.027344 247.828125 83.988281 265.441406 93.371094 C 265.808594 93.566406 266.03125 93.800781 266.226562 94.054688 C 266.382812 94.203125 266.53125 94.375 266.636719 94.570312 C 272.523438 104.730469 280.9375 112.84375 287.425781 122.539062 C 293.273438 131.316406 298.25 140.796875 305.972656 148.15625 " fill-opacity="1" fill-rule="nonzero"/></g></svg>