<svg xmlns="http://www.w3.org/2000/svg" xmlns:xlink="http://www.w3.org/1999/xlink" width="500" zoomAndPan="magnify" viewBox="0 0 375 374.999991" height="500" preserveAspectRatio="xMidYMid meet" version="1.0"><defs><clipPath id="b1aeec8579"><path d="M 72 110 L 303 110 L 303 266.238281 L 72 266.238281 Z M 72 110 " clip-rule="nonzero"/></clipPath></defs><rect x="-37.5" width="450" fill="#ffffff" y="-37.499999" height="449.999989" fill-opacity="1"/><rect x="-37.5" width="450" fill="#ffffff" y="-37.499999" height="449.999989" fill-opacity="1"/><path fill="#ff914d" d="M 187.5 375 C 291.050781 375 375 291.050781 375 187.5 C 375 83.945312 291.050781 0 187.5 0 C 83.945312 0 0 83.945312 0 187.5 C 0 291.050781 83.945312 375 187.5 375 Z M 187.5 375 " fill-opacity="1" fill-rule="nonzero"/><g clip-path="url(#b1aeec8579)"><path fill="#ffffff" d="M 133.753906 117.816406 C 133.609375 116.828125 133.242188 115.792969 132.683594 114.753906 C 123.273438 113.429688 113.214844 115.578125 104.800781 120.695312 C 104.597656 121.347656 104.367188 122.015625 104.132812 122.664062 C 104.058594 122.875 104 123.070312 103.933594 123.273438 C 105.273438 122.792969 106.664062 122.402344 108.019531 122.042969 C 114.425781 120.414062 120.878906 119.328125 126.335938 118.472656 C 127.628906 118.273438 128.902344 118.203125 130.128906 118.144531 C 131.386719 118.070312 132.570312 118.015625 133.753906 117.816406 Z M 137.824219 208.386719 L 138.453125 208.109375 C 138.402344 208.054688 138.339844 208.027344 138.28125 207.964844 C 136.710938 206.445312 135.46875 204.996094 134.5 203.492188 C 131.640625 199.105469 130.273438 193.910156 130.601562 188.871094 C 130.738281 186.992188 131.109375 185.144531 131.6875 183.355469 C 126.835938 191.253906 122.53125 199.539062 118.902344 208.042969 L 117.9375 210.300781 C 113.789062 219.988281 109.859375 229.140625 106.019531 239 C 105.191406 241.132812 104.320312 243.355469 103.355469 245.519531 C 102.703125 246.992188 102.179688 248.566406 101.695312 250.101562 C 101.164062 251.769531 100.601562 253.507812 99.832031 255.183594 C 99.484375 255.902344 99.113281 256.664062 98.648438 257.382812 C 99.761719 257.847656 100.902344 258.25 102.039062 258.4375 C 103.574219 258.671875 104.957031 258.4375 105.953125 257.765625 C 107.644531 256.636719 108.304688 254.269531 108.878906 252.167969 C 112.160156 240.429688 117.039062 229.210938 123.371094 218.804688 C 126.835938 213.132812 132.179688 210.824219 137.824219 208.386719 Z M 143.941406 211.746094 C 142.527344 211.125 141.359375 210.453125 140.25 209.613281 C 140.144531 209.710938 140.03125 209.800781 139.890625 209.859375 L 138.6875 210.375 C 133.132812 212.773438 128.339844 214.835938 125.21875 219.949219 C 118.984375 230.167969 114.195312 241.207031 110.976562 252.757812 C 110.324219 255.09375 109.515625 257.996094 107.164062 259.570312 C 106.050781 260.300781 104.664062 260.691406 103.167969 260.691406 C 102.691406 260.691406 102.195312 260.648438 101.710938 260.578125 C 100.136719 260.332031 98.675781 259.757812 97.277344 259.164062 C 96.886719 259.554688 96.46875 259.898438 96.003906 260.207031 C 99.253906 261.097656 102.578125 261.875 105.734375 261.761719 C 108.160156 261.671875 109.71875 259.136719 111.648438 255.570312 C 112.0625 254.832031 112.433594 254.140625 112.808594 253.507812 C 115.550781 248.949219 117.789062 243.933594 119.949219 239.097656 C 121.703125 235.191406 123.519531 231.132812 125.609375 227.261719 C 128.28125 222.34375 132.652344 215.488281 139.929688 212.773438 C 141.246094 212.285156 142.585938 211.964844 143.941406 211.746094 Z M 142.121094 121.191406 L 145.167969 118.691406 C 143.714844 118.894531 142.292969 119.125 140.894531 119.371094 C 140.347656 119.484375 139.785156 119.589844 139.238281 119.703125 C 137.609375 120.039062 135.960938 120.367188 134.3125 120.660156 C 132.945312 120.882812 131.589844 120.957031 130.289062 121.035156 C 129.074219 121.085938 127.9375 121.144531 126.785156 121.332031 C 121.378906 122.171875 115.019531 123.242188 108.738281 124.84375 C 106.171875 125.503906 103.339844 126.324219 100.96875 127.816406 C 99.582031 130.816406 98.191406 133.734375 96.828125 136.566406 C 93.003906 144.53125 89.394531 152.050781 86.410156 160.578125 C 78.152344 184.105469 75.167969 209.007812 77.777344 232.578125 C 79.074219 244.335938 81.484375 256.621094 89.554688 258.46875 C 90.453125 258.671875 91.347656 258.917969 92.242188 259.164062 C 93.167969 259.089844 94.015625 258.875 94.710938 258.46875 C 96.175781 257.59375 97.089844 255.929688 97.867188 254.269531 C 98.574219 252.710938 99.097656 251.125 99.644531 249.433594 C 100.152344 247.863281 100.667969 246.214844 101.371094 244.644531 C 102.332031 242.519531 103.183594 240.324219 104 238.207031 C 107.863281 228.332031 111.785156 219.148438 115.9375 209.457031 L 116.902344 207.1875 C 121.328125 196.851562 126.695312 186.835938 132.871094 177.441406 C 134.472656 175 136.410156 173.011719 138.265625 171.070312 C 139.957031 169.328125 141.703125 167.523438 143.148438 165.429688 C 144.40625 163.609375 145.09375 161.167969 145.117188 158.355469 C 145.136719 155.757812 144.636719 153.101562 144.128906 150.546875 L 139.726562 127.71875 C 139.539062 126.675781 139.292969 125.390625 139.726562 124.117188 C 140.191406 122.777344 141.296875 121.871094 142.121094 121.191406 Z M 149.136719 156.191406 C 149.066406 155.929688 148.992188 155.675781 148.917969 155.429688 C 146.164062 144.980469 144.082031 134.269531 142.710938 123.542969 C 142.285156 123.960938 141.933594 124.363281 141.777344 124.828125 C 141.515625 125.546875 141.703125 126.476562 141.859375 127.304688 L 146.253906 150.054688 C 146.28125 150.128906 146.328125 150.203125 146.351562 150.277344 L 148.011719 157.203125 Z M 151.492188 166.917969 C 150.527344 166.484375 149.628906 165.890625 148.878906 165.085938 C 147.9375 164.058594 147.347656 162.816406 146.933594 161.589844 C 146.566406 163.511719 145.917969 165.242188 144.921875 166.671875 C 144.082031 167.867188 143.175781 168.984375 142.242188 170.015625 C 142.617188 169.792969 143.003906 169.574219 143.394531 169.371094 C 145.929688 168.039062 148.691406 167.230469 151.492188 166.917969 Z M 172.609375 195.4375 C 173.230469 192.578125 173.433594 189.792969 173.214844 187.136719 C 172.855469 182.996094 171.457031 179.230469 169.144531 176.246094 C 166.417969 172.675781 162.257812 170.152344 157.726562 169.28125 C 156.5 169.035156 155.257812 168.925781 154 168.925781 C 150.714844 168.925781 147.390625 169.730469 144.390625 171.289062 C 137.824219 174.695312 133.273438 181.65625 132.773438 189.015625 C 132.464844 193.585938 133.722656 198.3125 136.320312 202.308594 C 137.203125 203.664062 138.328125 205.011719 139.785156 206.394531 C 141.484375 208.027344 142.914062 208.976562 145.078125 209.890625 C 145.570312 210.101562 146.082031 210.285156 146.582031 210.453125 C 147.871094 210.878906 149.210938 211.140625 150.566406 211.3125 C 151.148438 211.3125 151.726562 211.3125 152.285156 211.3125 C 153.453125 211.328125 154.636719 211.34375 155.820312 211.355469 C 158.070312 211.085938 160.265625 210.464844 162.300781 209.492188 C 165.316406 208.0625 167.628906 205.789062 169.777344 202.105469 C 170.917969 200.175781 172.046875 198.019531 172.609375 195.4375 Z M 214.621094 211.433594 C 213.125 210.984375 211.652344 210.421875 210.222656 209.890625 L 208.882812 209.382812 C 206.410156 208.460938 204.765625 205.632812 203.566406 203.582031 L 203.351562 203.207031 C 202.121094 201.109375 200.910156 198.773438 200.273438 195.902344 C 199.601562 192.824219 199.382812 189.824219 199.628906 186.964844 C 200.035156 182.40625 201.574219 178.25 204.128906 174.910156 C 206.121094 172.328125 208.792969 170.234375 211.792969 168.820312 C 206.753906 169.1875 201.679688 169.253906 196.660156 169.007812 C 189.554688 168.648438 185.453125 168.648438 178.347656 169.007812 C 176.292969 169.109375 174.226562 169.15625 172.160156 169.15625 C 169.171875 169.15625 166.1875 169.035156 163.214844 168.820312 C 166.214844 170.25 168.878906 172.328125 170.863281 174.910156 C 173.417969 178.25 174.972656 182.40625 175.363281 186.964844 C 175.609375 189.824219 175.394531 192.824219 174.71875 195.902344 C 174.097656 198.773438 172.871094 201.109375 171.65625 203.207031 C 169.285156 207.234375 166.621094 209.84375 163.230469 211.460938 C 163.214844 211.460938 163.199219 211.476562 163.167969 211.476562 C 166.628906 211.542969 170.078125 211.621094 173.460938 211.710938 C 178.078125 211.804688 182.796875 211.917969 187.503906 211.992188 C 192.195312 211.917969 196.925781 211.804688 201.53125 211.710938 C 205.835938 211.605469 210.222656 211.5 214.621094 211.433594 Z M 226.390625 159.582031 C 226.375 159.566406 226.34375 159.566406 226.328125 159.539062 L 225.117188 158.429688 C 224.644531 159.613281 224.039062 160.699219 223.140625 161.601562 C 221.398438 163.363281 218.972656 164.074219 216.816406 164.539062 C 210.871094 165.800781 204.71875 165.644531 198.777344 165.503906 C 197.78125 165.472656 196.769531 165.441406 195.773438 165.429688 C 192.683594 165.519531 189.832031 165.472656 187.054688 165.441406 C 184.570312 165.414062 182.003906 165.382812 179.21875 165.429688 C 178.222656 165.441406 177.226562 165.472656 176.214844 165.503906 C 174.277344 165.546875 172.316406 165.601562 170.355469 165.601562 C 166.285156 165.601562 162.1875 165.382812 158.175781 164.539062 C 156.019531 164.074219 153.597656 163.363281 151.867188 161.601562 C 150.953125 160.699219 150.347656 159.613281 149.890625 158.429688 L 148.679688 159.539062 C 148.648438 159.566406 148.617188 159.566406 148.601562 159.582031 C 148.976562 161.042969 149.488281 162.539062 150.46875 163.609375 C 152.054688 165.332031 154.742188 165.773438 157.121094 166.078125 C 164.105469 166.933594 171.207031 167.1875 178.238281 166.84375 C 185.421875 166.484375 189.585938 166.484375 196.753906 166.84375 C 203.785156 167.1875 210.886719 166.933594 217.871094 166.078125 C 220.265625 165.773438 222.9375 165.332031 224.527344 163.609375 C 225.519531 162.539062 226.015625 161.042969 226.390625 159.582031 Z M 230.3125 121.894531 L 225.691406 118.101562 C 222.207031 117.65625 218.648438 117.304688 215.011719 117.074219 C 212.316406 116.902344 209.546875 116.84375 206.875 116.789062 L 204.621094 116.730469 C 203.082031 116.699219 201.515625 116.585938 200.019531 116.484375 C 197.855469 116.324219 195.804688 116.199219 193.769531 116.242188 C 189.800781 116.3125 185.828125 116.386719 181.875 116.453125 L 179.152344 116.511719 C 169.863281 116.671875 159.980469 116.933594 150.117188 118.039062 C 149.816406 118.085938 149.523438 118.113281 149.226562 118.160156 L 144.679688 121.894531 C 146.035156 132.980469 148.15625 144.082031 151.015625 154.867188 C 151.574219 156.957031 152.136719 158.804688 153.410156 160.089844 C 154.742188 161.445312 156.785156 162.023438 158.617188 162.410156 C 164.324219 163.625 170.339844 163.480469 176.171875 163.339844 C 177.167969 163.308594 178.175781 163.28125 179.171875 163.265625 C 182.003906 163.207031 184.585938 163.25 187.085938 163.28125 C 189.832031 163.308594 192.667969 163.347656 195.773438 163.265625 C 196.816406 163.28125 197.824219 163.308594 198.835938 163.339844 C 204.652344 163.480469 210.671875 163.625 216.375 162.410156 C 218.207031 162.023438 220.25 161.445312 221.597656 160.089844 C 222.855469 158.804688 223.417969 156.957031 223.980469 154.867188 C 226.839844 144.082031 228.957031 132.980469 230.3125 121.894531 Z M 231.613281 169.371094 C 232.003906 169.574219 232.378906 169.792969 232.75 170.015625 C 231.816406 168.984375 230.910156 167.867188 230.070312 166.671875 C 229.089844 165.242188 228.425781 163.511719 228.058594 161.589844 C 227.648438 162.816406 227.070312 164.058594 226.113281 165.085938 C 225.363281 165.890625 224.464844 166.484375 223.5 166.933594 C 226.300781 167.230469 229.0625 168.039062 231.613281 169.371094 Z M 233.140625 127.304688 C 233.304688 126.476562 233.476562 125.546875 233.230469 124.828125 C 233.074219 124.363281 232.722656 123.960938 232.28125 123.542969 C 230.910156 134.269531 228.84375 144.980469 226.074219 155.429688 C 226 155.675781 225.925781 155.929688 225.859375 156.191406 L 226.980469 157.203125 L 228.648438 150.277344 C 228.664062 150.203125 228.710938 150.128906 228.753906 150.054688 Z M 238.6875 202.308594 C 241.285156 198.3125 242.542969 193.585938 242.21875 189.015625 C 241.734375 181.65625 237.167969 174.695312 230.617188 171.289062 C 227.601562 169.730469 224.277344 168.925781 220.992188 168.925781 C 219.75 168.925781 218.507812 169.035156 217.28125 169.28125 C 212.742188 170.152344 208.574219 172.675781 205.851562 176.246094 C 203.550781 179.230469 202.152344 182.996094 201.792969 187.136719 C 201.5625 189.792969 201.761719 192.578125 202.382812 195.4375 C 202.960938 198.019531 204.082031 200.175781 205.214844 202.105469 L 205.445312 202.480469 C 206.472656 204.253906 207.886719 206.695312 209.644531 207.34375 L 210.984375 207.871094 C 212.804688 208.542969 214.683594 209.261719 216.5625 209.695312 C 219.96875 210.503906 223.589844 210.609375 227.027344 210.003906 C 227.445312 209.925781 227.863281 209.832031 228.269531 209.726562 C 228.882812 209.554688 229.488281 209.367188 230.09375 209.179688 C 230.761719 208.976562 231.425781 208.761719 232.109375 208.585938 C 233.261719 208.28125 233.898438 207.675781 234.847656 206.738281 L 235.207031 206.394531 C 236.667969 205.011719 237.804688 203.664062 238.6875 202.308594 Z M 271.0625 123.273438 C 271 123.070312 270.933594 122.875 270.859375 122.664062 C 270.625 122.015625 270.394531 121.347656 270.191406 120.695312 C 261.792969 115.578125 251.734375 113.429688 242.324219 114.753906 C 241.742188 115.792969 241.398438 116.828125 241.253906 117.816406 C 242.421875 118.015625 243.621094 118.070312 244.863281 118.144531 C 246.089844 118.203125 247.363281 118.273438 248.65625 118.472656 C 254.128906 119.328125 260.566406 120.414062 266.972656 122.042969 C 268.34375 122.402344 269.722656 122.792969 271.0625 123.273438 Z M 276.34375 257.382812 C 275.894531 256.664062 275.507812 255.902344 275.164062 255.183594 C 274.398438 253.507812 273.832031 251.769531 273.296875 250.101562 C 272.804688 248.566406 272.304688 246.992188 271.636719 245.519531 C 270.671875 243.355469 269.804688 241.132812 268.972656 239 C 265.132812 229.140625 261.21875 219.988281 257.078125 210.300781 L 256.105469 208.042969 C 252.46875 199.539062 248.171875 191.253906 243.304688 183.355469 C 243.882812 185.144531 244.257812 186.992188 244.390625 188.871094 C 244.734375 193.910156 243.351562 199.105469 240.507812 203.492188 C 239.527344 204.996094 238.285156 206.445312 236.710938 207.964844 L 236.546875 208.109375 L 237.167969 208.386719 C 242.828125 210.824219 248.15625 213.132812 251.621094 218.820312 C 257.953125 229.210938 262.835938 240.429688 266.113281 252.167969 C 266.6875 254.269531 267.355469 256.636719 269.039062 257.765625 C 270.035156 258.4375 271.421875 258.671875 272.953125 258.4375 C 274.105469 258.25 275.230469 257.847656 276.34375 257.382812 Z M 279.003906 260.207031 C 278.523438 259.898438 278.105469 259.554688 277.730469 259.164062 C 276.316406 259.757812 274.871094 260.332031 273.285156 260.578125 C 272.796875 260.648438 272.304688 260.691406 271.839844 260.691406 C 270.328125 260.691406 268.941406 260.300781 267.84375 259.570312 C 265.492188 257.996094 264.683594 255.09375 264.015625 252.757812 C 260.796875 241.207031 256.007812 230.167969 249.773438 219.949219 C 246.667969 214.835938 241.875 212.773438 236.316406 210.375 L 235.101562 209.859375 C 235.003906 209.800781 234.898438 209.726562 234.816406 209.65625 C 234.226562 210.085938 233.546875 210.453125 232.640625 210.675781 C 232.003906 210.855469 231.367188 211.058594 230.746094 211.246094 C 230.402344 211.355469 230.070312 211.445312 229.71875 211.542969 C 231.523438 211.746094 233.328125 212.121094 235.078125 212.773438 C 242.339844 215.488281 246.726562 222.34375 249.398438 227.261719 C 251.488281 231.132812 253.289062 235.191406 255.035156 239.097656 C 257.207031 243.933594 259.445312 248.949219 262.183594 253.507812 C 262.574219 254.140625 262.945312 254.832031 263.335938 255.570312 C 265.289062 259.136719 266.847656 261.671875 269.273438 261.761719 C 272.414062 261.875 275.738281 261.097656 279.003906 260.207031 Z M 297.230469 232.578125 C 299.828125 209.007812 296.839844 184.105469 288.597656 160.578125 C 285.613281 152.050781 281.988281 144.53125 278.164062 136.566406 C 276.800781 133.734375 275.410156 130.800781 274.03125 127.816406 C 271.667969 126.324219 268.835938 125.503906 266.269531 124.84375 C 259.976562 123.242188 253.613281 122.171875 248.207031 121.332031 C 247.054688 121.144531 245.933594 121.085938 244.71875 121.035156 C 243.402344 120.957031 242.046875 120.882812 240.679688 120.660156 C 239.03125 120.367188 237.398438 120.039062 235.753906 119.703125 C 235.160156 119.589844 234.570312 119.46875 233.980469 119.355469 C 232.609375 119.09375 231.210938 118.878906 229.808594 118.675781 L 232.878906 121.191406 C 233.6875 121.871094 234.816406 122.777344 235.28125 124.117188 C 235.707031 125.390625 235.46875 126.675781 235.265625 127.71875 L 230.867188 150.546875 C 230.371094 153.101562 229.863281 155.757812 229.878906 158.355469 C 229.914062 161.167969 230.589844 163.609375 231.847656 165.429688 C 233.304688 167.523438 235.035156 169.328125 236.726562 171.070312 C 238.582031 173.011719 240.519531 175 242.125 177.441406 C 248.296875 186.835938 253.664062 196.851562 258.105469 207.1875 L 259.070312 209.457031 C 263.207031 219.148438 267.136719 228.332031 270.984375 238.207031 C 271.808594 240.324219 272.664062 242.519531 273.613281 244.644531 C 274.324219 246.214844 274.855469 247.863281 275.363281 249.433594 C 275.894531 251.125 276.414062 252.710938 277.140625 254.269531 C 277.902344 255.929688 278.808594 257.59375 280.28125 258.46875 C 280.980469 258.875 281.832031 259.089844 282.753906 259.164062 C 283.652344 258.917969 284.542969 258.671875 285.441406 258.46875 C 293.5 256.621094 295.933594 244.335938 297.230469 232.578125 Z M 292.683594 159.140625 C 301.144531 183.289062 304.199219 208.851562 301.53125 233.050781 C 300.566406 241.769531 298.5625 259.914062 286.40625 262.699219 C 284.902344 263.027344 283.402344 263.460938 281.816406 263.910156 C 277.960938 264.996094 273.996094 266.105469 269.90625 266.105469 C 269.644531 266.105469 269.375 266.105469 269.113281 266.089844 C 264.03125 265.902344 261.433594 261.125 259.542969 257.628906 C 259.167969 256.972656 258.824219 256.320312 258.46875 255.746094 C 255.605469 250.953125 253.304688 245.828125 251.097656 240.863281 C 249.382812 237.023438 247.601562 233.050781 245.589844 229.328125 C 241.875 222.472656 238.050781 218.503906 233.558594 216.828125 C 230.230469 215.585938 226.433594 215.617188 222.75 215.644531 C 215.722656 215.707031 208.558594 215.878906 201.636719 216.035156 C 198.648438 216.09375 195.601562 216.164062 192.542969 216.238281 C 192.28125 216.34375 192.054688 216.394531 191.71875 216.378906 C 190.316406 216.363281 188.902344 216.351562 187.503906 216.320312 C 186.089844 216.351562 184.691406 216.363281 183.289062 216.378906 C 182.960938 216.394531 182.714844 216.34375 182.453125 216.238281 C 179.40625 216.164062 176.359375 216.09375 173.355469 216.035156 C 166.449219 215.878906 159.285156 215.707031 152.242188 215.644531 C 148.574219 215.617188 144.777344 215.585938 141.449219 216.828125 C 136.941406 218.503906 133.132812 222.472656 129.417969 229.328125 C 127.40625 233.050781 125.625 237.023438 123.910156 240.863281 C 121.6875 245.828125 119.402344 250.953125 116.523438 255.746094 C 116.171875 256.320312 115.824219 256.972656 115.464844 257.628906 C 113.558594 261.125 110.976562 265.902344 105.894531 266.089844 C 101.492188 266.246094 97.277344 265.0625 93.175781 263.910156 C 91.589844 263.460938 90.09375 263.027344 88.585938 262.699219 C 76.4375 259.914062 74.425781 241.769531 73.460938 233.050781 C 70.789062 208.851562 73.847656 183.289062 82.324219 159.140625 C 85.382812 150.390625 89.050781 142.769531 92.9375 134.6875 C 94.492188 131.421875 96.109375 128.046875 97.695312 124.597656 C 97.914062 124.117188 98.273438 123.742188 98.738281 123.527344 C 98.878906 123.472656 99.113281 123.324219 99.34375 123.183594 C 99.375 123.167969 99.386719 123.152344 99.402344 123.136719 C 99.605469 122.5 99.832031 121.855469 100.046875 121.222656 C 100.371094 120.335938 100.652344 119.515625 100.839844 118.78125 C 100.96875 118.234375 101.320312 117.769531 101.785156 117.476562 C 111.492188 111.289062 123.371094 108.796875 134.359375 110.621094 C 134.964844 110.726562 135.480469 111.070312 135.820312 111.574219 C 136.664062 112.859375 137.285156 114.222656 137.691406 115.5625 C 141.46875 114.820312 145.414062 114.222656 149.644531 113.742188 C 159.6875 112.613281 169.695312 112.34375 179.074219 112.1875 L 181.785156 112.125 C 185.761719 112.050781 189.710938 111.976562 193.679688 111.910156 C 195.902344 111.863281 198.140625 112.015625 200.304688 112.171875 C 201.761719 112.269531 203.273438 112.375 204.734375 112.402344 L 206.957031 112.457031 C 209.691406 112.515625 212.503906 112.574219 215.289062 112.761719 C 222.921875 113.234375 230.328125 114.175781 237.308594 115.546875 C 237.707031 114.207031 238.335938 112.859375 239.175781 111.574219 C 239.511719 111.070312 240.042969 110.726562 240.632812 110.621094 C 251.621094 108.796875 263.492188 111.289062 273.207031 117.476562 C 273.6875 117.769531 274.015625 118.234375 274.152344 118.78125 C 274.339844 119.515625 274.625 120.335938 274.945312 121.222656 C 275.164062 121.855469 275.386719 122.5 275.597656 123.136719 C 275.605469 123.152344 275.632812 123.167969 275.648438 123.183594 C 275.882812 123.324219 276.128906 123.472656 276.269531 123.527344 C 276.71875 123.757812 277.09375 124.132812 277.3125 124.597656 C 278.882812 128.046875 280.5 131.421875 282.070312 134.6875 C 285.941406 142.769531 289.609375 150.390625 292.683594 159.140625 " fill-opacity="1" fill-rule="nonzero"/></g><path fill="#ffffff" d="M 277.496094 161.820312 C 279.421875 160.25 280.5 157.898438 280.296875 155.675781 C 280.140625 153.871094 279.070312 152.222656 277.4375 151.265625 C 276.390625 150.652344 275.214844 150.347656 273.785156 150.347656 C 273.023438 150.347656 272.183594 150.433594 271.261719 150.609375 C 269.960938 150.839844 268.164062 151.417969 266.863281 152.816406 C 265.3125 154.460938 264.839844 157.046875 265.679688 159.222656 C 266.488281 161.339844 268.507812 163.03125 270.828125 163.511719 C 273.066406 163.984375 275.632812 163.339844 277.496094 161.820312 Z M 282.46875 155.488281 C 282.722656 158.414062 281.335938 161.492188 278.851562 163.496094 C 276.988281 165.007812 274.652344 165.832031 272.332031 165.832031 C 271.683594 165.832031 271.03125 165.773438 270.386719 165.628906 C 267.371094 165.007812 264.726562 162.785156 263.65625 160 C 262.527344 157.058594 263.179688 153.578125 265.273438 151.339844 C 266.972656 149.507812 269.257812 148.773438 270.875 148.480469 C 273.023438 148.078125 275.851562 147.839844 278.539062 149.394531 C 280.777344 150.703125 282.242188 152.988281 282.46875 155.488281 " fill-opacity="1" fill-rule="nonzero"/><path fill="#ffffff" d="M 261.621094 178.75 C 263.546875 177.179688 264.625 174.828125 264.421875 172.605469 C 264.265625 170.796875 263.195312 169.15625 261.5625 168.183594 C 260.515625 167.578125 259.339844 167.277344 257.910156 167.277344 C 257.144531 167.277344 256.308594 167.367188 255.386719 167.539062 C 254.085938 167.769531 252.28125 168.347656 250.984375 169.746094 C 249.445312 171.394531 248.964844 173.960938 249.804688 176.15625 C 250.605469 178.273438 252.625 179.964844 254.953125 180.445312 C 257.207031 180.914062 259.757812 180.265625 261.621094 178.75 Z M 266.585938 172.417969 C 266.847656 175.347656 265.460938 178.421875 262.976562 180.429688 C 261.121094 181.941406 258.777344 182.765625 256.449219 182.765625 C 255.804688 182.765625 255.15625 182.695312 254.503906 182.5625 C 251.488281 181.941406 248.84375 179.71875 247.78125 176.917969 C 246.652344 173.992188 247.304688 170.496094 249.398438 168.257812 C 251.097656 166.4375 253.378906 165.707031 254.996094 165.398438 C 257.144531 165.007812 259.976562 164.753906 262.664062 166.328125 C 264.902344 167.636719 266.367188 169.90625 266.585938 172.417969 " fill-opacity="1" fill-rule="nonzero"/><path fill="#ffffff" d="M 261.523438 145.945312 C 263.441406 144.371094 264.519531 142.015625 264.324219 139.792969 C 264.160156 137.988281 263.089844 136.347656 261.464844 135.390625 C 260.410156 134.769531 259.242188 134.46875 257.8125 134.46875 C 257.046875 134.46875 256.210938 134.558594 255.289062 134.730469 C 253.988281 134.957031 252.183594 135.539062 250.867188 136.941406 C 249.339844 138.578125 248.859375 141.167969 249.699219 143.347656 C 250.507812 145.464844 252.527344 147.15625 254.855469 147.636719 C 257.085938 148.109375 259.644531 147.457031 261.523438 145.945312 Z M 266.488281 139.613281 C 266.742188 142.539062 265.355469 145.613281 262.878906 147.621094 C 261.015625 149.132812 258.671875 149.957031 256.351562 149.957031 C 255.703125 149.957031 255.035156 149.898438 254.40625 149.753906 C 251.375 149.132812 248.734375 146.910156 247.664062 144.109375 C 246.554688 141.183594 247.199219 137.703125 249.292969 135.464844 C 251 133.632812 253.277344 132.898438 254.894531 132.605469 C 257.046875 132.203125 259.871094 131.953125 262.558594 133.519531 C 264.796875 134.828125 266.253906 137.097656 266.488281 139.613281 " fill-opacity="1" fill-rule="nonzero"/><path fill="#ffffff" d="M 245.265625 162.128906 C 247.199219 160.554688 248.269531 158.199219 248.082031 155.972656 C 247.910156 154.171875 246.839844 152.523438 245.207031 151.558594 C 244.175781 150.953125 242.992188 150.652344 241.5625 150.652344 C 240.789062 150.652344 239.960938 150.734375 239.03125 150.90625 C 237.738281 151.140625 235.933594 151.714844 234.628906 153.113281 C 233.082031 154.761719 232.609375 157.328125 233.449219 159.523438 C 234.257812 161.648438 236.277344 163.339844 238.597656 163.8125 C 240.851562 164.289062 243.402344 163.640625 245.265625 162.128906 Z M 250.230469 155.789062 C 250.492188 158.714844 249.105469 161.789062 246.636719 163.796875 C 244.765625 165.316406 242.421875 166.140625 240.101562 166.140625 C 239.449219 166.140625 238.800781 166.066406 238.148438 165.9375 C 235.132812 165.300781 232.488281 163.09375 231.425781 160.292969 C 230.304688 157.359375 230.949219 153.871094 233.042969 151.632812 C 234.742188 149.8125 237.027344 149.074219 238.640625 148.773438 C 240.789062 148.382812 243.621094 148.121094 246.308594 149.695312 C 248.546875 151.011719 250.019531 153.28125 250.230469 155.789062 " fill-opacity="1" fill-rule="nonzero"/><path fill="#ffffff" d="M 239.796875 135.695312 C 240.695312 133.722656 241.457031 131.125 240.878906 129.761719 C 240.722656 129.355469 240.429688 129.101562 239.996094 128.9375 C 239.839844 128.886719 239.667969 128.855469 239.511719 128.855469 C 239.105469 128.855469 238.6875 129.011719 238.394531 129.289062 C 237.925781 129.746094 237.722656 130.539062 237.542969 131.3125 C 237.300781 132.433594 237.101562 133.554688 236.898438 134.6875 C 236.777344 135.359375 236.667969 136.011719 236.742188 136.589844 C 236.808594 137.066406 237.039062 137.472656 237.332031 137.628906 C 237.660156 137.800781 238.195312 137.703125 238.613281 137.382812 C 239.167969 136.96875 239.527344 136.273438 239.796875 135.695312 Z M 242.886719 128.929688 C 243.882812 131.296875 242.609375 134.746094 241.765625 136.601562 C 241.398438 137.394531 240.851562 138.40625 239.929688 139.117188 C 239.25 139.621094 238.46875 139.882812 237.722656 139.882812 C 237.226562 139.882812 236.742188 139.769531 236.316406 139.539062 C 235.394531 139.058594 234.757812 138.0625 234.601562 136.878906 C 234.472656 135.964844 234.628906 135.089844 234.757812 134.3125 C 234.976562 133.144531 235.175781 131.984375 235.4375 130.847656 C 235.671875 129.792969 235.984375 128.625 236.882812 127.742188 C 237.878906 126.761719 239.421875 126.429688 240.738281 126.910156 C 241.742188 127.269531 242.480469 127.972656 242.886719 128.929688 " fill-opacity="1" fill-rule="nonzero"/><path fill="#ffffff" d="M 234.007812 192.375 C 235.722656 187.703125 234.382812 182.074219 230.730469 178.691406 C 228.035156 176.199219 224.152344 174.988281 220.355469 175.472656 C 219.578125 175.5625 217.234375 175.863281 215.941406 176.65625 C 214.683594 177.457031 213.351562 178.984375 212.199219 180.960938 C 211.03125 182.964844 210.394531 185.160156 210.347656 187.316406 C 210.265625 191.746094 212.847656 195.996094 216.628906 197.675781 C 217.984375 198.28125 219.578125 198.625 221.644531 198.789062 C 224.195312 198.976562 228.910156 198.84375 231.816406 195.945312 C 232.738281 195.015625 233.476562 193.820312 234.007812 192.375 Z M 232.699219 176.574219 C 237.167969 180.726562 238.828125 187.644531 236.726562 193.378906 C 236.046875 195.203125 235.078125 196.769531 233.867188 197.988281 C 230.878906 200.96875 226.703125 201.730469 223.246094 201.730469 C 222.609375 201.730469 222.003906 201.703125 221.441406 201.65625 C 219.03125 201.484375 217.136719 201.066406 215.460938 200.316406 C 210.730469 198.207031 207.46875 192.964844 207.46875 187.503906 C 207.46875 187.425781 207.46875 187.335938 207.46875 187.253906 C 207.527344 184.613281 208.289062 181.941406 209.703125 179.515625 C 210.683594 177.832031 212.289062 175.546875 214.40625 174.222656 C 216.050781 173.199219 218.378906 172.808594 219.996094 172.605469 C 224.644531 172.03125 229.375 173.511719 232.699219 176.574219 " fill-opacity="1" fill-rule="nonzero"/><path fill="#ffffff" d="M 230.289062 191.003906 C 231.457031 187.847656 230.507812 183.894531 228.035156 181.609375 C 226.480469 180.167969 224.269531 179.34375 221.972656 179.34375 C 221.597656 179.34375 221.21875 179.359375 220.851562 179.402344 C 218.621094 179.6875 218.074219 180.023438 218.042969 180.039062 C 217.355469 180.457031 216.417969 181.609375 215.632812 182.949219 C 214.808594 184.378906 214.351562 185.90625 214.324219 187.382812 C 214.277344 190.210938 215.925781 193.027344 218.246094 194.050781 C 219.171875 194.457031 220.339844 194.703125 221.929688 194.816406 C 222.347656 194.84375 222.78125 194.875 223.214844 194.875 C 225.070312 194.875 227.585938 194.574219 229.015625 193.144531 C 229.519531 192.621094 229.96875 191.886719 230.289062 191.003906 Z M 229.503906 180.023438 C 232.578125 182.882812 233.777344 187.816406 232.324219 191.753906 C 231.882812 192.929688 231.269531 193.9375 230.542969 194.671875 C 228.582031 196.617188 225.484375 197.039062 223.214844 197.039062 C 222.738281 197.039062 222.25 197.007812 221.769531 196.984375 C 219.921875 196.851562 218.523438 196.550781 217.371094 196.027344 C 214.277344 194.65625 212.101562 191.003906 212.152344 187.335938 C 212.199219 185.503906 212.742188 183.601562 213.761719 181.875 C 214.757812 180.167969 215.894531 178.828125 216.890625 178.191406 C 217.527344 177.800781 218.769531 177.480469 220.574219 177.261719 C 223.820312 176.851562 227.226562 177.914062 229.503906 180.023438 " fill-opacity="1" fill-rule="nonzero"/><path fill="#ffffff" d="M 196.523438 170.203125 C 197.113281 170.203125 197.609375 170.699219 197.609375 171.289062 C 197.609375 171.894531 197.113281 172.375 196.523438 172.375 L 195.84375 172.375 C 195.234375 172.375 194.765625 171.894531 194.765625 171.289062 C 194.765625 170.699219 195.234375 170.203125 195.84375 170.203125 L 196.523438 170.203125 " fill-opacity="1" fill-rule="nonzero"/><path fill="#ffffff" d="M 195.214844 174.351562 C 195.25 174.464844 195.265625 174.582031 195.25 174.695312 C 195.222656 175.269531 194.75 175.71875 194.171875 175.71875 C 194.15625 175.71875 194.144531 175.71875 194.113281 175.71875 C 193.535156 175.691406 193.050781 175.226562 192.976562 174.636719 C 192.886719 174.027344 193.253906 173.46875 193.8125 173.296875 C 194.390625 173.109375 194.996094 173.421875 195.167969 174.007812 C 195.199219 174.117188 195.222656 174.230469 195.214844 174.351562 " fill-opacity="1" fill-rule="nonzero"/><path fill="#ffffff" d="M 191.980469 199.800781 L 191.800781 198.585938 C 190.316406 198.511719 188.796875 198.46875 187.316406 198.46875 C 186.835938 198.484375 186.433594 198.527344 185.886719 198.65625 C 185.265625 198.796875 184.613281 198.789062 184.054688 198.773438 C 184.054688 198.796875 184.066406 198.84375 184.066406 198.871094 C 184.097656 199.023438 184.097656 199.195312 184.113281 199.351562 C 184.113281 199.382812 184.113281 199.402344 184.113281 199.433594 C 184.128906 199.417969 184.15625 199.417969 184.195312 199.417969 C 184.332031 199.417969 184.488281 199.433594 184.601562 199.433594 C 184.832031 199.449219 185.035156 199.449219 185.207031 199.476562 C 185.960938 199.582031 186.695312 199.679688 187.445312 199.753906 C 187.863281 199.800781 190.550781 199.851562 191.980469 199.800781 Z M 194.261719 200.535156 C 194.316406 200.847656 194.1875 201.222656 193.957031 201.46875 C 193.535156 201.917969 191.875 202.015625 190.316406 202.015625 C 188.746094 202.015625 187.273438 201.902344 187.242188 201.902344 C 186.464844 201.828125 185.683594 201.730469 184.921875 201.617188 C 184.800781 201.605469 184.675781 201.605469 184.53125 201.605469 C 183.910156 201.589844 183.074219 201.558594 182.496094 200.984375 C 181.972656 200.472656 181.941406 199.816406 181.941406 199.402344 C 181.925781 199.335938 181.941406 199.261719 181.925781 199.195312 C 181.921875 199.117188 181.890625 199.027344 181.875 198.945312 C 181.761719 198.511719 181.566406 197.777344 182.046875 197.171875 C 182.25 196.910156 182.652344 196.597656 183.363281 196.597656 C 183.582031 196.582031 183.820312 196.597656 184.066406 196.605469 C 184.546875 196.617188 185.019531 196.632812 185.386719 196.550781 C 186.058594 196.386719 186.605469 196.289062 187.332031 196.304688 C 189.152344 196.320312 191 196.363281 192.816406 196.460938 C 193.320312 196.492188 193.753906 196.882812 193.820312 197.398438 L 194.261719 200.535156 " fill-opacity="1" fill-rule="nonzero"/><path fill="#ffffff" d="M 192.464844 169.84375 C 193.058594 169.917969 193.476562 170.464844 193.410156 171.058594 C 193.335938 171.605469 192.855469 172 192.324219 172 C 192.28125 172 192.234375 172 192.183594 171.984375 L 191.515625 171.894531 C 190.925781 171.828125 190.503906 171.273438 190.582031 170.683594 C 190.648438 170.089844 191.195312 169.671875 191.792969 169.746094 L 192.464844 169.84375 " fill-opacity="1" fill-rule="nonzero"/><path fill="#ffffff" d="M 190.242188 173.683594 C 190.820312 173.847656 191.171875 174.441406 191.03125 175.015625 C 190.894531 175.488281 190.460938 175.824219 189.972656 175.824219 C 189.882812 175.824219 189.800781 175.808594 189.695312 175.78125 L 189.121094 175.636719 C 188.542969 175.472656 188.191406 174.882812 188.355469 174.304688 C 188.5 173.730469 189.105469 173.386719 189.667969 173.527344 L 190.242188 173.683594 " fill-opacity="1" fill-rule="nonzero"/><path fill="#ffffff" d="M 187.363281 169.980469 C 187.96875 169.980469 188.441406 170.464844 188.441406 171.070312 C 188.441406 171.664062 187.96875 172.140625 187.363281 172.140625 C 186.761719 172.140625 186.230469 171.664062 186.230469 171.070312 C 186.230469 170.464844 186.679688 169.980469 187.273438 169.980469 L 187.363281 169.980469 " fill-opacity="1" fill-rule="nonzero"/><path fill="#ffffff" d="M 186.214844 173.558594 C 186.824219 173.632812 187.242188 174.164062 187.175781 174.753906 L 187.128906 175.160156 C 187.070312 175.707031 186.597656 176.125 186.058594 176.125 C 186.015625 176.125 185.976562 176.109375 185.933594 176.109375 C 185.339844 176.035156 184.921875 175.503906 184.972656 174.910156 L 185.019531 174.507812 C 185.09375 173.917969 185.625 173.480469 186.214844 173.558594 " fill-opacity="1" fill-rule="nonzero"/><path fill="#ffffff" d="M 183.492188 170.03125 C 184.082031 170.03125 184.570312 170.511719 184.570312 171.117188 C 184.570312 171.707031 184.082031 172.203125 183.492188 172.203125 L 183.214844 172.203125 C 182.609375 172.203125 182.136719 171.707031 182.136719 171.117188 C 182.136719 170.511719 182.609375 170.03125 183.214844 170.03125 L 183.492188 170.03125 " fill-opacity="1" fill-rule="nonzero"/><path fill="#ffffff" d="M 183.261719 174.410156 L 183.261719 174.851562 C 183.261719 175.445312 182.765625 175.9375 182.175781 175.9375 C 181.582031 175.9375 181.097656 175.445312 181.097656 174.851562 L 181.097656 174.410156 C 181.097656 173.804688 181.582031 173.324219 182.175781 173.324219 C 182.765625 173.324219 183.261719 173.804688 183.261719 174.410156 " fill-opacity="1" fill-rule="nonzero"/><path fill="#ffffff" d="M 179.523438 170.078125 C 180.117188 170.078125 180.601562 170.554688 180.601562 171.160156 C 180.601562 171.753906 180.117188 172.238281 179.523438 172.238281 L 179.292969 172.238281 C 178.703125 172.238281 178.207031 171.753906 178.207031 171.160156 C 178.207031 170.554688 178.703125 170.078125 179.292969 170.078125 L 179.523438 170.078125 " fill-opacity="1" fill-rule="nonzero"/><path fill="#ffffff" d="M 158.363281 197.675781 C 162.144531 195.996094 164.726562 191.746094 164.644531 187.316406 C 164.597656 185.160156 163.964844 182.964844 162.796875 180.960938 C 161.648438 178.984375 160.324219 177.457031 159.054688 176.65625 C 157.765625 175.863281 155.414062 175.5625 154.652344 175.472656 C 154.105469 175.40625 153.542969 175.359375 152.988281 175.359375 C 149.742188 175.359375 146.566406 176.558594 144.277344 178.691406 C 140.625 182.074219 139.269531 187.703125 140.984375 192.375 C 141.515625 193.820312 142.257812 195.015625 143.175781 195.945312 C 146.082031 198.84375 150.796875 198.976562 153.347656 198.789062 C 155.414062 198.625 157.007812 198.28125 158.363281 197.675781 Z M 167.527344 187.253906 C 167.628906 192.808594 164.351562 198.183594 159.53125 200.316406 C 157.871094 201.066406 155.960938 201.484375 153.566406 201.65625 C 152.988281 201.703125 152.382812 201.730469 151.746094 201.730469 C 148.289062 201.730469 144.113281 200.96875 141.140625 197.988281 C 139.914062 196.769531 138.949219 195.203125 138.265625 193.378906 C 136.164062 187.644531 137.824219 180.726562 142.308594 176.574219 C 145.617188 173.511719 150.378906 172.03125 154.996094 172.605469 C 156.613281 172.808594 158.957031 173.199219 160.585938 174.222656 C 162.707031 175.546875 164.324219 177.832031 165.289062 179.515625 C 166.703125 181.941406 167.480469 184.628906 167.527344 187.253906 " fill-opacity="1" fill-rule="nonzero"/><path fill="#ffffff" d="M 156.761719 194.050781 C 159.082031 193.027344 160.730469 190.210938 160.667969 187.382812 C 160.640625 185.90625 160.199219 184.378906 159.375 182.949219 C 158.574219 181.609375 157.636719 180.457031 156.949219 180.039062 C 156.933594 180.023438 156.375 179.6875 154.140625 179.402344 C 153.785156 179.359375 153.394531 179.34375 153.019531 179.34375 C 150.722656 179.34375 148.515625 180.167969 146.972656 181.609375 C 144.488281 183.894531 143.550781 187.847656 144.703125 191.003906 C 145.039062 191.886719 145.476562 192.621094 145.992188 193.144531 C 147.421875 194.574219 149.9375 194.875 151.777344 194.875 C 152.210938 194.875 152.644531 194.84375 153.078125 194.816406 C 154.667969 194.703125 155.835938 194.457031 156.761719 194.050781 Z M 162.839844 187.335938 C 162.90625 191.003906 160.714844 194.65625 157.636719 196.027344 C 156.46875 196.550781 155.070312 196.851562 153.222656 196.984375 C 152.742188 197.007812 152.269531 197.039062 151.777344 197.039062 C 149.507812 197.039062 146.410156 196.617188 144.464844 194.671875 C 143.722656 193.9375 143.109375 192.929688 142.667969 191.753906 C 141.230469 187.816406 142.414062 182.882812 145.503906 180.023438 C 147.765625 177.914062 151.171875 176.851562 154.417969 177.261719 C 156.238281 177.480469 157.464844 177.800781 158.101562 178.191406 C 159.113281 178.828125 160.25 180.167969 161.230469 181.875 C 162.25 183.601562 162.804688 185.503906 162.839844 187.335938 " fill-opacity="1" fill-rule="nonzero"/><path fill="#ffffff" d="M 138.25 136.589844 C 138.339844 136.011719 138.230469 135.359375 138.09375 134.6875 C 137.890625 133.554688 137.691406 132.433594 137.449219 131.3125 C 137.269531 130.539062 137.070312 129.746094 136.597656 129.289062 C 136.320312 129.011719 135.902344 128.855469 135.496094 128.855469 C 135.324219 128.855469 135.152344 128.886719 135.003906 128.9375 C 134.5625 129.101562 134.285156 129.355469 134.113281 129.761719 C 133.535156 131.125 134.300781 133.722656 135.210938 135.695312 C 135.46875 136.273438 135.828125 136.96875 136.378906 137.382812 C 136.800781 137.703125 137.347656 137.800781 137.675781 137.628906 C 137.96875 137.472656 138.199219 137.066406 138.25 136.589844 Z M 140.234375 134.3125 C 140.378906 135.089844 140.535156 135.964844 140.40625 136.894531 C 140.234375 138.0625 139.597656 139.058594 138.6875 139.539062 C 138.25 139.769531 137.78125 139.882812 137.269531 139.882812 C 136.523438 139.882812 135.742188 139.621094 135.078125 139.117188 C 134.140625 138.40625 133.609375 137.394531 133.242188 136.601562 C 132.390625 134.746094 131.125 131.296875 132.121094 128.929688 C 132.511719 127.972656 133.257812 127.269531 134.253906 126.910156 C 135.570312 126.429688 137.113281 126.761719 138.109375 127.742188 C 139.007812 128.625 139.335938 129.792969 139.570312 130.847656 C 139.816406 131.984375 140.03125 133.144531 140.234375 134.3125 " fill-opacity="1" fill-rule="nonzero"/><path fill="#ffffff" d="M 137.691406 161.214844 C 138.617188 158.570312 139.492188 155.195312 138.265625 152.554688 C 138.09375 152.164062 137.796875 151.664062 137.375 151.476562 C 137.023438 151.296875 136.523438 151.296875 136.035156 151.296875 L 133.242188 151.296875 C 132.945312 151.296875 132.609375 151.28125 132.292969 151.265625 C 131.730469 151.230469 131.15625 151.183594 130.75 151.28125 C 129.851562 151.476562 128.828125 152.089844 127.9375 152.988281 C 127.792969 153.128906 127.660156 153.265625 127.53125 153.40625 C 126.761719 154.28125 126.132812 155.324219 125.609375 156.222656 C 125.09375 157.113281 125.109375 157.246094 125.234375 157.433594 C 125.5625 157.851562 126.117188 158.273438 126.621094 158.660156 C 126.882812 158.863281 127.144531 159.066406 127.367188 159.253906 C 128.25 160 129.105469 160.539062 129.972656 160.898438 C 130.199219 160.980469 130.421875 161.070312 130.648438 161.132812 C 132.195312 161.617188 133.910156 161.648438 135.371094 161.601562 C 135.570312 161.601562 135.804688 161.601562 136.035156 161.601562 C 137.257812 161.648438 137.578125 161.558594 137.691406 161.214844 Z M 140.234375 151.648438 C 141.792969 154.992188 140.796875 158.894531 139.742188 161.925781 C 139.074219 163.828125 137.144531 163.796875 135.992188 163.773438 C 135.789062 163.773438 135.601562 163.773438 135.414062 163.773438 C 135.136719 163.78125 134.859375 163.78125 134.578125 163.78125 C 133.132812 163.78125 131.542969 163.683594 130.019531 163.207031 C 129.726562 163.121094 129.433594 163.019531 129.164062 162.90625 C 128.078125 162.457031 127.039062 161.804688 125.976562 160.914062 C 125.765625 160.734375 125.542969 160.5625 125.308594 160.375 C 124.71875 159.917969 124.039062 159.394531 123.527344 158.757812 C 122.449219 157.375 123.242188 155.988281 123.722656 155.167969 C 124.3125 154.140625 125.003906 153.003906 125.914062 151.976562 C 126.074219 151.789062 126.230469 151.617188 126.402344 151.460938 C 127.097656 150.75 128.542969 149.539062 130.289062 149.164062 C 131 149.007812 131.746094 149.066406 132.429688 149.101562 C 132.710938 149.117188 132.988281 149.132812 133.230469 149.132812 C 133.242188 149.132812 133.242188 149.132812 133.242188 149.132812 L 136.019531 149.132812 C 136.695312 149.132812 137.519531 149.132812 138.296875 149.507812 C 139.105469 149.898438 139.757812 150.609375 140.234375 151.648438 " fill-opacity="1" fill-rule="nonzero"/><path fill="#ffffff" d="M 123.648438 147.285156 C 124.128906 145.742188 124.15625 144.042969 124.128906 142.570312 C 124.128906 142.367188 124.128906 142.132812 124.128906 141.902344 C 124.15625 140.691406 124.066406 140.359375 123.730469 140.242188 C 121.09375 139.320312 117.71875 138.4375 115.078125 139.664062 C 114.6875 139.835938 114.179688 140.144531 113.976562 140.5625 C 113.820312 140.90625 113.820312 141.414062 113.820312 141.917969 L 113.820312 144.6875 C 113.820312 144.992188 113.804688 145.324219 113.773438 145.652344 C 113.746094 146.207031 113.699219 146.78125 113.789062 147.203125 C 113.976562 148.078125 114.613281 149.101562 115.503906 150.015625 C 115.640625 150.144531 115.78125 150.277344 115.921875 150.40625 C 116.792969 151.183594 117.832031 151.804688 118.738281 152.320312 C 119.636719 152.847656 119.761719 152.847656 119.933594 152.695312 C 120.371094 152.367188 120.773438 151.835938 121.179688 151.3125 C 121.378906 151.058594 121.566406 150.792969 121.769531 150.5625 C 122.523438 149.679688 123.058594 148.832031 123.414062 147.964844 C 123.503906 147.75 123.582031 147.515625 123.648438 147.285156 Z M 126.289062 142.523438 C 126.335938 144.15625 126.289062 146.085938 125.730469 147.921875 C 125.625 148.210938 125.527344 148.496094 125.40625 148.773438 C 124.972656 149.875 124.328125 150.90625 123.414062 151.960938 C 123.242188 152.164062 123.070312 152.398438 122.898438 152.628906 C 122.433594 153.234375 121.917969 153.894531 121.28125 154.402344 C 120.757812 154.808594 120.257812 154.949219 119.777344 154.949219 C 118.941406 154.949219 118.207031 154.515625 117.691406 154.214844 C 116.664062 153.625 115.503906 152.929688 114.484375 152.023438 C 114.304688 151.871094 114.132812 151.699219 113.976562 151.527344 C 113.960938 151.527344 113.960938 151.527344 113.960938 151.527344 C 113.273438 150.839844 112.0625 149.394531 111.679688 147.644531 C 111.523438 146.953125 111.582031 146.191406 111.625 145.511719 C 111.640625 145.242188 111.648438 144.949219 111.648438 144.6875 L 111.648438 141.917969 C 111.648438 141.25 111.648438 140.414062 112.03125 139.632812 C 112.40625 138.824219 113.125 138.183594 114.148438 137.703125 C 117.511719 136.144531 121.410156 137.15625 124.441406 138.191406 C 126.351562 138.855469 126.320312 140.792969 126.289062 141.949219 C 126.289062 142.148438 126.289062 142.335938 126.289062 142.523438 " fill-opacity="1" fill-rule="nonzero"/><path fill="#ffffff" d="M 124.097656 167.1875 C 124.128906 166.625 124.171875 166.050781 124.082031 165.644531 C 123.894531 164.769531 123.273438 163.746094 122.367188 162.832031 C 122.234375 162.6875 122.089844 162.554688 121.957031 162.441406 C 121.082031 161.664062 120.039062 161.042969 119.132812 160.527344 C 118.550781 160.171875 118.296875 160.0625 118.132812 160.0625 C 118.050781 160.0625 117.988281 160.105469 117.9375 160.144531 C 117.511719 160.480469 117.097656 161.011719 116.6875 161.535156 C 116.507812 161.789062 116.296875 162.039062 116.09375 162.285156 C 115.363281 163.167969 114.816406 164.011719 114.472656 164.882812 C 114.367188 165.097656 114.292969 165.332031 114.222656 165.5625 C 113.746094 167.105469 113.714844 168.8125 113.746094 170.265625 C 113.761719 170.480469 113.746094 170.710938 113.746094 170.945312 C 113.730469 172.15625 113.804688 172.488281 114.148438 172.605469 C 116.792969 173.511719 120.152344 174.410156 122.808594 173.183594 C 123.183594 172.996094 123.691406 172.703125 123.894531 172.285156 C 124.050781 171.941406 124.050781 171.402344 124.050781 170.929688 L 124.050781 168.144531 C 124.050781 167.851562 124.066406 167.523438 124.097656 167.1875 Z M 126.199219 165.195312 C 126.351562 165.890625 126.304688 166.65625 126.261719 167.335938 C 126.230469 167.621094 126.214844 167.898438 126.214844 168.144531 L 126.214844 170.929688 C 126.214844 171.550781 126.214844 172.417969 125.839844 173.210938 C 125.46875 174.019531 124.75 174.664062 123.722656 175.144531 C 122.464844 175.71875 121.15625 175.953125 119.824219 175.953125 C 117.585938 175.953125 115.332031 175.300781 113.429688 174.648438 C 111.523438 173.992188 111.566406 172.050781 111.582031 170.898438 C 111.582031 170.699219 111.597656 170.511719 111.582031 170.324219 C 111.550781 168.675781 111.582031 166.761719 112.160156 164.910156 C 112.25 164.621094 112.34375 164.351562 112.464844 164.058594 C 112.90625 162.972656 113.558594 161.941406 114.457031 160.886719 C 114.628906 160.667969 114.800781 160.4375 114.988281 160.203125 C 115.4375 159.613281 115.953125 158.929688 116.589844 158.445312 C 117.988281 157.34375 119.359375 158.152344 120.183594 158.632812 C 121.222656 159.222656 122.367188 159.917969 123.386719 160.808594 C 123.566406 160.96875 123.730469 161.132812 123.910156 161.304688 C 124.597656 162.007812 125.828125 163.453125 126.199219 165.195312 " fill-opacity="1" fill-rule="nonzero"/><path fill="#ffffff" d="M 112.449219 156.625 C 112.964844 155.726562 112.953125 155.601562 112.824219 155.414062 C 112.488281 154.992188 111.941406 154.574219 111.441406 154.171875 C 111.175781 153.984375 110.914062 153.78125 110.683594 153.578125 C 109.808594 152.847656 108.953125 152.308594 108.085938 151.949219 C 107.863281 151.863281 107.644531 151.773438 107.414062 151.699219 C 105.863281 151.230469 104.148438 151.199219 102.691406 151.242188 C 102.472656 151.242188 102.253906 151.242188 102.03125 151.230469 C 100.804688 151.214844 100.480469 151.28125 100.371094 151.632812 C 99.441406 154.277344 98.566406 157.636719 99.785156 160.292969 C 99.964844 160.683594 100.265625 161.167969 100.683594 161.371094 C 101.027344 161.535156 101.535156 161.542969 102.03125 161.535156 L 104.808594 161.535156 C 105.113281 161.535156 105.445312 161.558594 105.78125 161.574219 C 106.328125 161.617188 106.902344 161.648438 107.308594 161.558594 C 108.207031 161.371094 109.230469 160.75 110.121094 159.859375 C 110.273438 159.71875 110.398438 159.566406 110.527344 159.441406 C 111.289062 158.558594 111.925781 157.515625 112.449219 156.625 Z M 114.523438 154.089844 C 115.609375 155.472656 114.816406 156.859375 114.335938 157.679688 C 113.746094 158.707031 113.054688 159.84375 112.144531 160.871094 C 111.984375 161.042969 111.828125 161.214844 111.648438 161.386719 C 110.960938 162.082031 109.515625 163.308594 107.773438 163.683594 C 107.414062 163.75 107.039062 163.78125 106.671875 163.78125 C 106.3125 163.78125 105.96875 163.75 105.640625 163.746094 C 105.347656 163.730469 105.070312 163.699219 104.824219 163.699219 C 104.808594 163.699219 104.808594 163.699219 104.808594 163.699219 L 102.03125 163.699219 C 101.371094 163.699219 100.542969 163.714844 99.761719 163.339844 C 98.953125 162.949219 98.304688 162.226562 97.824219 161.199219 C 96.265625 157.851562 97.261719 153.9375 98.316406 150.921875 C 98.976562 149.007812 100.914062 149.050781 102.066406 149.066406 C 102.269531 149.074219 102.457031 149.074219 102.644531 149.074219 C 104.277344 149.035156 106.199219 149.074219 108.042969 149.640625 C 108.332031 149.722656 108.625 149.828125 108.894531 149.941406 C 109.980469 150.390625 111.019531 151.042969 112.089844 151.933594 C 112.292969 152.105469 112.515625 152.285156 112.75 152.472656 C 113.339844 152.914062 114.023438 153.4375 114.523438 154.089844 " fill-opacity="1" fill-rule="nonzero"/></svg>