<svg xmlns="http://www.w3.org/2000/svg" xmlns:xlink="http://www.w3.org/1999/xlink" width="500" zoomAndPan="magnify" viewBox="0 0 375 374.999991" height="500" preserveAspectRatio="xMidYMid meet" version="1.0"><defs><g/><clipPath id="f74e8fc846"><path d="M 2.15625 0 L 374.90625 0 L 374.90625 372.75 L 2.15625 372.75 Z M 2.15625 0 " clip-rule="nonzero"/></clipPath></defs><rect x="-37.5" width="450" fill="#ffffff" y="-37.499999" height="449.999989" fill-opacity="1"/><rect x="-37.5" width="450" fill="#ffffff" y="-37.499999" height="449.999989" fill-opacity="1"/><g clip-path="url(#f74e8fc846)"><path fill="#66bb6a" d="M 374.90625 186.375 C 374.90625 189.425781 374.828125 192.472656 374.679688 195.519531 C 374.53125 198.566406 374.304688 201.605469 374.007812 204.644531 C 373.707031 207.679688 373.335938 210.703125 372.886719 213.722656 C 372.441406 216.738281 371.917969 219.742188 371.324219 222.734375 C 370.730469 225.726562 370.058594 228.703125 369.320312 231.660156 C 368.578125 234.621094 367.765625 237.558594 366.878906 240.476562 C 365.996094 243.394531 365.039062 246.289062 364.011719 249.164062 C 362.984375 252.035156 361.886719 254.878906 360.71875 257.699219 C 359.550781 260.515625 358.316406 263.304688 357.011719 266.058594 C 355.707031 268.816406 354.335938 271.542969 352.898438 274.230469 C 351.460938 276.921875 349.957031 279.574219 348.390625 282.191406 C 346.820312 284.808594 345.191406 287.382812 343.496094 289.917969 C 341.800781 292.457031 340.042969 294.949219 338.226562 297.398438 C 336.410156 299.847656 334.535156 302.253906 332.601562 304.609375 C 330.664062 306.96875 328.671875 309.277344 326.625 311.535156 C 324.578125 313.796875 322.472656 316.003906 320.316406 318.160156 C 318.160156 320.320312 315.953125 322.421875 313.691406 324.46875 C 311.429688 326.519531 309.121094 328.507812 306.765625 330.445312 C 304.40625 332.378906 302.003906 334.253906 299.554688 336.074219 C 297.101562 337.890625 294.609375 339.644531 292.074219 341.339844 C 289.539062 343.035156 286.960938 344.664062 284.347656 346.234375 C 281.730469 347.800781 279.078125 349.304688 276.386719 350.742188 C 273.695312 352.179688 270.972656 353.550781 268.214844 354.855469 C 265.457031 356.160156 262.671875 357.394531 259.851562 358.5625 C 257.035156 359.730469 254.191406 360.828125 251.316406 361.855469 C 248.445312 362.882812 245.550781 363.839844 242.632812 364.726562 C 239.710938 365.609375 236.773438 366.421875 233.816406 367.164062 C 230.855469 367.90625 227.882812 368.574219 224.890625 369.167969 C 221.898438 369.765625 218.894531 370.285156 215.875 370.734375 C 212.859375 371.179688 209.832031 371.554688 206.796875 371.851562 C 203.761719 372.152344 200.722656 372.375 197.675781 372.527344 C 194.628906 372.675781 191.578125 372.75 188.53125 372.75 C 185.480469 372.75 182.429688 372.675781 179.386719 372.527344 C 176.339844 372.375 173.296875 372.152344 170.261719 371.851562 C 167.226562 371.554688 164.199219 371.179688 161.183594 370.734375 C 158.164062 370.285156 155.160156 369.765625 152.171875 369.167969 C 149.179688 368.574219 146.203125 367.90625 143.246094 367.164062 C 140.285156 366.421875 137.347656 365.609375 134.429688 364.726562 C 131.507812 363.839844 128.613281 362.882812 125.742188 361.855469 C 122.871094 360.828125 120.023438 359.730469 117.207031 358.5625 C 114.390625 357.394531 111.601562 356.160156 108.84375 354.855469 C 106.085938 353.550781 103.363281 352.179688 100.671875 350.742188 C 97.984375 349.304688 95.332031 347.800781 92.714844 346.234375 C 90.097656 344.664062 87.523438 343.035156 84.984375 341.339844 C 82.449219 339.644531 79.957031 337.890625 77.507812 336.074219 C 75.054688 334.253906 72.652344 332.378906 70.292969 330.445312 C 67.9375 328.507812 65.628906 326.519531 63.367188 324.46875 C 61.109375 322.421875 58.898438 320.320312 56.742188 318.160156 C 54.585938 316.003906 52.484375 313.796875 50.433594 311.535156 C 48.386719 309.277344 46.394531 306.96875 44.460938 304.609375 C 42.523438 302.253906 40.648438 299.847656 38.832031 297.398438 C 37.015625 294.949219 35.257812 292.457031 33.566406 289.917969 C 31.871094 287.382812 30.238281 284.808594 28.671875 282.191406 C 27.101562 279.574219 25.601562 276.921875 24.160156 274.230469 C 22.722656 271.542969 21.351562 268.816406 20.050781 266.058594 C 18.746094 263.304688 17.507812 260.515625 16.34375 257.699219 C 15.175781 254.878906 14.078125 252.035156 13.050781 249.164062 C 12.023438 246.289062 11.066406 243.394531 10.179688 240.476562 C 9.292969 237.558594 8.480469 234.621094 7.742188 231.660156 C 7 228.703125 6.332031 225.726562 5.734375 222.734375 C 5.140625 219.742188 4.621094 216.738281 4.171875 213.722656 C 3.722656 210.703125 3.351562 207.679688 3.050781 204.644531 C 2.753906 201.605469 2.527344 198.566406 2.378906 195.519531 C 2.230469 192.472656 2.15625 189.425781 2.15625 186.375 C 2.15625 183.324219 2.230469 180.277344 2.378906 177.230469 C 2.527344 174.183594 2.753906 171.140625 3.050781 168.105469 C 3.351562 165.070312 3.722656 162.046875 4.171875 159.027344 C 4.621094 156.011719 5.140625 153.007812 5.734375 150.015625 C 6.332031 147.023438 7 144.046875 7.742188 141.089844 C 8.480469 138.128906 9.292969 135.191406 10.179688 132.273438 C 11.066406 129.355469 12.023438 126.460938 13.050781 123.585938 C 14.078125 120.714844 15.175781 117.871094 16.34375 115.050781 C 17.507812 112.234375 18.746094 109.445312 20.050781 106.6875 C 21.351562 103.933594 22.722656 101.207031 24.160156 98.519531 C 25.601562 95.828125 27.101562 93.175781 28.671875 90.558594 C 30.238281 87.941406 31.871094 85.367188 33.566406 82.832031 C 35.257812 80.292969 37.015625 77.800781 38.832031 75.351562 C 40.648438 72.902344 42.523438 70.496094 44.460938 68.140625 C 46.394531 65.78125 48.386719 63.472656 50.433594 61.214844 C 52.484375 58.953125 54.585938 56.746094 56.742188 54.589844 C 58.898438 52.429688 61.109375 50.328125 63.367188 48.28125 C 65.628906 46.230469 67.9375 44.238281 70.292969 42.304688 C 72.652344 40.371094 75.054688 38.496094 77.507812 36.675781 C 79.957031 34.859375 82.449219 33.105469 84.984375 31.410156 C 87.523438 29.714844 90.097656 28.082031 92.714844 26.515625 C 95.332031 24.949219 97.984375 23.445312 100.671875 22.007812 C 103.363281 20.570312 106.085938 19.199219 108.84375 17.894531 C 111.601562 16.589844 114.390625 15.355469 117.207031 14.1875 C 120.023438 13.019531 122.871094 11.921875 125.742188 10.894531 C 128.613281 9.867188 131.507812 8.910156 134.429688 8.023438 C 137.347656 7.140625 140.285156 6.328125 143.246094 5.585938 C 146.203125 4.84375 149.179688 4.175781 152.171875 3.582031 C 155.160156 2.984375 158.164062 2.464844 161.183594 2.015625 C 164.199219 1.570312 167.226562 1.195312 170.261719 0.898438 C 173.296875 0.597656 176.339844 0.375 179.386719 0.222656 C 182.429688 0.0742188 185.480469 0 188.53125 0 C 191.578125 0 194.628906 0.0742188 197.675781 0.222656 C 200.722656 0.375 203.761719 0.597656 206.796875 0.898438 C 209.832031 1.195312 212.859375 1.570312 215.875 2.015625 C 218.894531 2.464844 221.898438 2.984375 224.890625 3.582031 C 227.882812 4.175781 230.855469 4.84375 233.816406 5.585938 C 236.773438 6.328125 239.710938 7.140625 242.632812 8.023438 C 245.550781 8.910156 248.445312 9.867188 251.316406 10.894531 C 254.191406 11.921875 257.035156 13.019531 259.851562 14.1875 C 262.671875 15.355469 265.457031 16.589844 268.214844 17.894531 C 270.972656 19.199219 273.695312 20.570312 276.386719 22.007812 C 279.078125 23.445312 281.730469 24.949219 284.347656 26.515625 C 286.960938 28.082031 289.539062 29.714844 292.074219 31.410156 C 294.609375 33.105469 297.101562 34.859375 299.554688 36.675781 C 302.003906 38.496094 304.40625 40.371094 306.765625 42.304688 C 309.121094 44.238281 311.429688 46.230469 313.691406 48.28125 C 315.953125 50.328125 318.160156 52.429688 320.316406 54.589844 C 322.472656 56.746094 324.578125 58.953125 326.625 61.214844 C 328.671875 63.472656 330.664062 65.78125 332.601562 68.140625 C 334.535156 70.496094 336.410156 72.902344 338.226562 75.351562 C 340.042969 77.800781 341.800781 80.292969 343.496094 82.832031 C 345.191406 85.367188 346.820312 87.941406 348.390625 90.558594 C 349.957031 93.175781 351.460938 95.828125 352.898438 98.519531 C 354.335938 101.207031 355.707031 103.933594 357.011719 106.6875 C 358.316406 109.445312 359.550781 112.234375 360.71875 115.050781 C 361.886719 117.871094 362.984375 120.714844 364.011719 123.585938 C 365.039062 126.460938 365.996094 129.355469 366.878906 132.273438 C 367.765625 135.191406 368.578125 138.128906 369.320312 141.089844 C 370.058594 144.046875 370.730469 147.023438 371.324219 150.015625 C 371.917969 153.007812 372.441406 156.011719 372.886719 159.027344 C 373.335938 162.046875 373.707031 165.070312 374.007812 168.105469 C 374.304688 171.140625 374.53125 174.183594 374.679688 177.230469 C 374.828125 180.277344 374.90625 183.324219 374.90625 186.375 Z M 374.90625 186.375 " fill-opacity="1" fill-rule="nonzero"/></g><path fill="#ffffff" d="M 94.722656 146.226562 L 94.722656 157.488281 L 152.417969 157.488281 L 152.417969 146.226562 C 152.417969 144.519531 151.023438 143.042969 149.234375 143.042969 L 97.828125 143.042969 C 96.117188 143.121094 94.722656 144.519531 94.722656 146.226562 Z M 94.722656 146.226562 " fill-opacity="1" fill-rule="nonzero"/><path fill="#ffffff" d="M 109.164062 128.675781 L 138.054688 128.675781 L 138.054688 135.898438 L 109.164062 135.898438 Z M 109.164062 128.675781 " fill-opacity="1" fill-rule="nonzero"/><path fill="#ffffff" d="M 91.148438 96.214844 C 91.148438 94.195312 92.78125 92.644531 94.722656 92.644531 L 152.417969 92.644531 C 154.4375 92.644531 155.992188 91.011719 155.992188 89.070312 C 155.992188 87.050781 154.359375 85.5 152.417969 85.5 L 83.847656 85.5 L 83.847656 103.515625 L 91.070312 103.515625 L 91.070312 96.214844 Z M 91.148438 96.214844 " fill-opacity="1" fill-rule="nonzero"/><path fill="#ffffff" d="M 119.960938 99.789062 L 127.179688 99.789062 L 127.179688 121.453125 L 119.960938 121.453125 Z M 119.960938 99.789062 " fill-opacity="1" fill-rule="nonzero"/><path fill="#ffffff" d="M 76.703125 164.707031 L 170.511719 164.707031 L 170.511719 175.503906 L 76.703125 175.503906 Z M 76.703125 164.707031 " fill-opacity="1" fill-rule="nonzero"/><path fill="#ffffff" d="M 152.417969 251.296875 L 87.5 251.296875 C 85.480469 251.296875 83.925781 249.664062 83.925781 247.722656 L 83.925781 204.46875 C 83.925781 202.449219 85.558594 200.898438 87.5 200.898438 L 159.640625 200.898438 C 161.660156 200.898438 163.214844 202.527344 163.214844 204.46875 L 163.214844 231.414062 C 165.386719 230.40625 167.875 229.785156 170.4375 229.785156 L 170.4375 182.878906 L 76.703125 182.878906 L 76.703125 273.039062 L 152.417969 273.039062 Z M 152.417969 251.296875 " fill-opacity="1" fill-rule="nonzero"/><path fill="#ffffff" d="M 152.886719 244.074219 C 153.429688 241.511719 154.515625 239.179688 156.070312 237.164062 L 156.070312 207.964844 L 91.148438 207.964844 L 91.148438 244.074219 Z M 101.941406 215.261719 L 145.199219 215.261719 C 147.214844 215.261719 148.769531 216.894531 148.769531 218.835938 C 148.769531 220.855469 147.140625 222.40625 145.199219 222.40625 L 101.941406 222.40625 C 99.925781 222.40625 98.371094 220.777344 98.371094 218.835938 C 98.371094 216.816406 99.925781 215.261719 101.941406 215.261719 Z M 101.941406 229.628906 L 145.199219 229.628906 C 147.214844 229.628906 148.769531 231.261719 148.769531 233.203125 C 148.769531 235.222656 147.140625 236.773438 145.199219 236.773438 L 101.941406 236.773438 C 99.925781 236.773438 98.371094 235.144531 98.371094 233.203125 C 98.371094 231.261719 99.925781 229.628906 101.941406 229.628906 Z M 101.941406 229.628906 " fill-opacity="1" fill-rule="nonzero"/><path fill="#ffffff" d="M 76.703125 280.183594 L 76.703125 287.40625 L 156.300781 287.40625 C 154.671875 285.308594 153.507812 282.824219 152.886719 280.183594 Z M 76.703125 280.183594 " fill-opacity="1" fill-rule="nonzero"/><path fill="#ffffff" d="M 229.84375 204.390625 L 201.34375 204.390625 L 202.585938 215.261719 L 228.601562 215.261719 Z M 229.84375 204.390625 " fill-opacity="1" fill-rule="nonzero"/><path fill="#ffffff" d="M 238.617188 128.675781 L 192.566406 128.675781 L 200.488281 197.167969 L 230.695312 197.167969 Z M 238.617188 128.675781 " fill-opacity="1" fill-rule="nonzero"/><path fill="#ffffff" d="M 192.101562 114.230469 L 239.007812 114.230469 L 239.007812 121.453125 L 192.101562 121.453125 Z M 192.101562 114.230469 " fill-opacity="1" fill-rule="nonzero"/><path fill="#ffffff" d="M 210.195312 222.484375 L 220.988281 222.484375 L 220.988281 229.707031 L 210.195312 229.707031 Z M 210.195312 222.484375 " fill-opacity="1" fill-rule="nonzero"/><path fill="#ffffff" d="M 170.980469 236.851562 C 164.921875 236.851562 159.953125 241.667969 159.71875 247.644531 C 159.71875 247.722656 159.71875 247.800781 159.71875 247.800781 C 159.71875 247.878906 159.71875 247.957031 159.71875 248.035156 L 159.71875 275.992188 C 159.71875 276.066406 159.71875 276.144531 159.71875 276.222656 C 159.71875 276.300781 159.71875 276.378906 159.71875 276.378906 C 159.953125 282.359375 164.921875 287.171875 170.980469 287.171875 L 249.414062 287.171875 C 250.808594 287.171875 252.207031 286.941406 253.449219 286.394531 L 253.449219 237.628906 C 252.128906 237.164062 250.808594 236.851562 249.414062 236.851562 Z M 242.65625 272.960938 L 177.734375 272.960938 L 177.734375 251.296875 L 242.65625 251.296875 Z M 242.65625 272.960938 " fill-opacity="1" fill-rule="nonzero"/><path fill="#ffffff" d="M 260.671875 287.40625 L 267.894531 287.40625 L 267.894531 197.167969 C 267.894531 192.433594 270.921875 188.472656 275.117188 186.996094 L 275.117188 128.675781 L 260.671875 128.675781 Z M 260.671875 287.40625 " fill-opacity="1" fill-rule="nonzero"/><path fill="#ffffff" d="M 296.78125 168.359375 L 282.339844 168.359375 L 282.339844 175.582031 L 296.78125 175.582031 C 298.800781 175.582031 300.355469 173.949219 300.355469 172.007812 C 300.355469 170.066406 298.722656 168.359375 296.78125 168.359375 Z M 296.78125 168.359375 " fill-opacity="1" fill-rule="nonzero"/><path fill="#ffffff" d="M 296.78125 139.46875 L 282.339844 139.46875 L 282.339844 146.691406 L 296.78125 146.691406 C 298.800781 146.691406 300.355469 145.0625 300.355469 143.121094 C 300.355469 141.101562 298.722656 139.46875 296.78125 139.46875 Z M 296.78125 139.46875 " fill-opacity="1" fill-rule="nonzero"/><path fill="#ffffff" d="M 296.78125 153.914062 L 282.339844 153.914062 L 282.339844 161.136719 L 296.78125 161.136719 C 298.800781 161.136719 300.355469 159.507812 300.355469 157.566406 C 300.355469 155.546875 298.722656 153.914062 296.78125 153.914062 Z M 296.78125 153.914062 " fill-opacity="1" fill-rule="nonzero"/><path fill="#ffffff" d="M 296.78125 182.804688 L 282.339844 182.804688 L 282.339844 190.023438 L 296.78125 190.023438 C 298.800781 190.023438 300.355469 188.394531 300.355469 186.453125 C 300.355469 184.511719 298.722656 182.804688 296.78125 182.804688 Z M 296.78125 182.804688 " fill-opacity="1" fill-rule="nonzero"/><path fill="#ffffff" d="M 300.355469 128.675781 C 300.355469 126.65625 298.722656 125.105469 296.78125 125.105469 L 282.339844 125.105469 L 282.339844 132.328125 L 296.78125 132.328125 C 298.722656 132.25 300.355469 130.617188 300.355469 128.675781 Z M 300.355469 128.675781 " fill-opacity="1" fill-rule="nonzero"/><g fill="#ffffff" fill-opacity="1"><g transform="translate(361.051181, 14.900001)"><g><path d="M 2.203125 0.078125 C 1.929688 0.078125 1.6875 0.0195312 1.46875 -0.09375 C 1.257812 -0.207031 1.097656 -0.363281 0.984375 -0.5625 C 0.878906 -0.757812 0.828125 -0.984375 0.828125 -1.234375 C 0.828125 -1.484375 0.878906 -1.707031 0.984375 -1.90625 C 1.097656 -2.101562 1.257812 -2.257812 1.46875 -2.375 C 1.6875 -2.488281 1.929688 -2.546875 2.203125 -2.546875 C 2.484375 -2.546875 2.726562 -2.488281 2.9375 -2.375 C 3.15625 -2.269531 3.316406 -2.117188 3.421875 -1.921875 C 3.535156 -1.722656 3.59375 -1.5 3.59375 -1.25 C 3.59375 -0.863281 3.46875 -0.546875 3.21875 -0.296875 C 2.96875 -0.046875 2.628906 0.078125 2.203125 0.078125 Z M 2.203125 0.078125 "/></g></g></g></svg>